<?xml version="1.0" encoding="UTF-8" standalone="no"?>
<!-- Created with Inkscape (http://www.inkscape.org/) -->

<svg
   width="13.745934mm"
   height="4.2333331mm"
   viewBox="0 0 13.745933 4.2333331"
   version="1.1"
   id="svg1"
   inkscape:version="1.3 (0e150ed6c4, 2023-07-21)"
   sodipodi:docname="search.svg"
   xmlns:inkscape="http://www.inkscape.org/namespaces/inkscape"
   xmlns:sodipodi="http://sodipodi.sourceforge.net/DTD/sodipodi-0.dtd"
   xmlns="http://www.w3.org/2000/svg"
   xmlns:svg="http://www.w3.org/2000/svg">
  <sodipodi:namedview
     id="namedview1"
     pagecolor="#ffffff"
     bordercolor="#000000"
     borderopacity="0.25"
     inkscape:showpageshadow="2"
     inkscape:pageopacity="0.0"
     inkscape:pagecheckerboard="0"
     inkscape:deskcolor="#d1d1d1"
     inkscape:document-units="mm"
     inkscape:zoom="18.50477"
     inkscape:cx="30.964989"
     inkscape:cy="8.565359"
     inkscape:window-width="1366"
     inkscape:window-height="697"
     inkscape:window-x="-8"
     inkscape:window-y="-8"
     inkscape:window-maximized="1"
     inkscape:current-layer="layer1" />
  <defs
     id="defs1" />
  <g
     inkscape:label="Layer 1"
     inkscape:groupmode="layer"
     id="layer1"
     transform="translate(-9.2615232,-5.9599218)">
    <path
       style="font-style:italic;font-weight:900;font-size:2.91042px;line-height:1.1;font-family:'Public Sans';-inkscape-font-specification:'Public Sans Heavy Italic';text-align:center;text-anchor:middle;fill:#d40000;stroke-width:3.55714"
       d="m 9.2615232,10.193255 0.3546497,-3.5596818 0.9426831,-0.049404 -0.271055,2.771656 1.401812,-0.073466 -0.07872,0.7877708 z M 13.545224,10.017733 Q 13.022597,10.045123 12.661718,9.841187 12.30071,9.6348087 12.132934,9.2370855 11.965161,8.8393624 12.019386,8.2855202 q 0.05655,-0.5564127 0.308701,-0.9785923 0.254465,-0.4247496 0.660304,-0.6713166 0.40571,-0.2490091 0.916125,-0.2757588 0.510416,-0.02675 0.869109,0.1821987 0.358566,0.2065062 0.529041,0.6089856 0.172785,0.3999095 0.118688,0.9561938 -0.05437,0.5514009 -0.304073,0.973452 -0.249836,0.4196092 -0.653232,0.6660482 -0.403525,0.2439969 -0.918825,0.2710022 z m 0.07241,-0.7678482 q 0.195375,-0.010239 0.356324,-0.116629 0.160813,-0.1088331 0.268711,-0.339785 0.110206,-0.2335226 0.146412,-0.6174469 0.0429,-0.3965195 -0.02064,-0.6282831 -0.0637,-0.2342038 -0.205966,-0.3320504 -0.139829,-0.097974 -0.332756,-0.087863 -0.290619,0.015231 -0.507514,0.2690379 -0.214453,0.2536792 -0.276283,0.849551 -0.0362,0.3839242 0.02935,0.6082355 0.06551,0.2218646 0.207513,0.3148271 0.141878,0.090519 0.334815,0.080408 z m 3.649475,0.5727929 Q 16.76646,9.8489156 16.415094,9.6395831 16.066041,9.4276804 15.898265,9.0299574 q -0.165467,-0.400293 -0.11033,-0.9370408 0.05668,-0.5539704 0.316029,-0.9789762 0.25922,-0.4274477 0.667372,-0.6765848 0.410594,-0.2492651 0.916127,-0.275759 0.471341,-0.024702 0.793667,0.1445213 0.322327,0.1692233 0.479588,0.4597462 0.15958,0.2879525 0.130456,0.6200791 l -0.986643,0.051708 q -0.01729,-0.143578 -0.07707,-0.2555434 -0.05974,-0.1119674 -0.168215,-0.172402 -0.108591,-0.062878 -0.274667,-0.054174 -0.175837,0.00922 -0.336914,0.1131633 -0.161197,0.1015058 -0.276551,0.3304003 -0.115473,0.2264518 -0.15412,0.6105041 -0.03181,0.3273696 0.01292,0.5258345 0.047,0.1958968 0.142862,0.2961753 0.09831,0.10015 0.217451,0.1306392 0.121595,0.030361 0.233928,0.024474 0.100123,-0.00525 0.186512,-0.039162 0.08882,-0.034041 0.15966,-0.084282 0.07071,-0.052683 0.12136,-0.1141111 0.05065,-0.061428 0.07432,-0.1238899 l 0.0544,-0.1301934 -0.610546,0.031997 0.06416,-0.6449717 1.607468,-0.07445 -0.185508,1.8806744 -0.620316,0.032509 0.03569,-0.393693 q -0.09784,0.095737 -0.231665,0.2056034 -0.131384,0.1097393 -0.327806,0.1934997 -0.194105,0.08119 -0.484725,0.096421 z M 21.118428,9.6208386 Q 20.5958,9.6482283 20.234921,9.4442922 19.873914,9.2379139 19.706138,8.8401908 19.538365,8.4424676 19.59259,7.8886254 q 0.05655,-0.5564127 0.308701,-0.9785923 0.254465,-0.4247496 0.660303,-0.6713165 0.405711,-0.2490092 0.916125,-0.2757589 0.510417,-0.02675 0.86911,0.1821987 0.358565,0.2065062 0.529041,0.6089856 0.172785,0.3999095 0.118688,0.9561938 -0.05437,0.5514009 -0.304074,0.973452 Q 22.440649,9.103397 22.037252,9.349836 21.633728,9.5938329 21.118428,9.6208386 Z M 21.190836,8.85299 q 0.195375,-0.010239 0.356323,-0.116629 0.160814,-0.1088331 0.268712,-0.339785 0.110205,-0.2335226 0.146411,-0.6174469 0.0429,-0.3965195 -0.02064,-0.6282831 -0.0637,-0.2342037 -0.205966,-0.3320504 -0.13983,-0.097974 -0.332756,-0.087863 -0.29062,0.015231 -0.507514,0.2690378 -0.214453,0.2536792 -0.276283,0.849551 -0.0362,0.3839242 0.02935,0.6082355 0.06551,0.2218646 0.207512,0.3148272 0.141879,0.090519 0.334816,0.080408 z"
       id="text2"
       aria-label="LOGO"
       inkscape:export-filename="..\works\samples\futuristika\main-logo.svg"
       inkscape:export-xdpi="96"
       inkscape:export-ydpi="96" />
  </g>
</svg>
