<?xml version="1.0" encoding="UTF-8" standalone="no"?>
<!-- Created with Inkscape (http://www.inkscape.org/) -->

<svg
   width="156.67313mm"
   height="33.109093mm"
   viewBox="0 0 156.67313 33.109093"
   version="1.1"
   id="svg1"
   xmlns:inkscape="http://www.inkscape.org/namespaces/inkscape"
   xmlns:sodipodi="http://sodipodi.sourceforge.net/DTD/sodipodi-0.dtd"
   xmlns="http://www.w3.org/2000/svg"
   xmlns:svg="http://www.w3.org/2000/svg">
  <sodipodi:namedview
     id="namedview1"
     pagecolor="#ffffff"
     bordercolor="#000000"
     borderopacity="0.25"
     inkscape:showpageshadow="2"
     inkscape:pageopacity="0.0"
     inkscape:pagecheckerboard="0"
     inkscape:deskcolor="#d1d1d1"
     inkscape:document-units="mm" />
  <defs
     id="defs1" />
  <g
     inkscape:label="Layer 1"
     inkscape:groupmode="layer"
     id="layer1"
     transform="translate(178.85936)">
    <path
       id="text1"
       style="font-weight:bold;font-size:33.8667px;line-height:1.1;font-family:'Bricolage Grotesque';-inkscape-font-specification:'Bricolage Grotesque';text-align:center;text-anchor:middle;fill:#f9f9f9;stroke-width:2.11667"
       d="m -97.522729,0 c -0.948267,0 -1.671116,0.20338192 -2.167827,0.6097819 -0.496704,0.4064 -0.745174,0.9934884 -0.745174,1.7611328 0,0.7450666 0.24847,1.3206264 0.745174,1.7270264 0.496711,0.4064 1.21956,0.6097819 2.167827,0.6097819 0.948267,0 1.670598,-0.2033819 2.167309,-0.6097819 0.519289,-0.4064 0.778764,-0.9819598 0.778764,-1.7270264 0,-0.7676444 -0.259475,-1.3547328 -0.778764,-1.7611328 C -95.852131,0.20338192 -96.574462,0 -97.522729,0 Z m 36.858215,0 c -0.948267,0 -1.671115,0.20338192 -2.167826,0.6097819 -0.496711,0.4064 -0.745175,0.9934884 -0.745175,1.7611328 0,0.7450666 0.248464,1.3206264 0.745175,1.7270264 0.496711,0.4064 1.219559,0.6097819 2.167826,0.6097819 0.948266,0 1.670598,-0.2033819 2.167309,-0.6097819 0.519289,-0.4064 0.778764,-0.9819598 0.778764,-1.7270264 0,-0.7676444 -0.259475,-1.3547328 -0.778764,-1.7611328 C -58.993916,0.20338192 -59.716248,0 -60.664514,0 Z m 5.1139,0.47438965 V 24.011454 h 4.774902 v -7.281209 h 1.558044 c 1.083733,0 1.896228,0.202865 2.438094,0.609265 0.541867,0.383822 0.914562,0.914818 1.117762,1.592151 0.225777,0.654755 0.39509,1.377087 0.507979,2.16731 l 0.406694,2.912483 h 5.282881 l -0.81287,-4.13153 c -0.158045,-0.835378 -0.38345,-1.591779 -0.676961,-2.269113 -0.293511,-0.699911 -0.711287,-1.286999 -1.253154,-1.761132 -0.519289,-0.474133 -1.242138,-0.801747 -2.167826,-0.982369 -0.903111,-0.2032 -2.05423,-0.2032 -3.454053,0 v -0.270785 c 1.083734,-0.383822 2.077069,-0.869219 2.98018,-1.456242 0.925688,-0.587022 1.738699,-1.241732 2.438611,-1.964221 0.699911,-0.745067 1.286483,-1.5355368 1.760616,-2.3709147 0.474133,-0.8579555 0.824287,-1.7155309 1.050065,-2.5734863 h -5.554183 c -0.158045,0.5870222 -0.383967,1.2076631 -0.677478,1.8624186 -0.270934,0.6321778 -0.643111,1.2643473 -1.117245,1.8965251 -0.451555,0.6321773 -1.005091,1.2192663 -1.659847,1.7611323 -0.632177,0.519289 -1.354509,0.959606 -2.167309,1.32085 V 0.47438965 Z M -178.85937,1.6593302 V 24.011454 h 4.87671 v -8.297168 h 9.04234 v -3.996655 h -9.04234 V 5.7572713 h 10.29549 V 1.6593302 h -10.29549 z m 38.02094,0.5756755 -0.0341,0.4402832 c -0.11288,1.3546666 -0.43998,2.3710594 -0.98185,3.0483927 -0.51929,0.6547556 -1.39992,1.049474 -2.6417,1.1849406 h -0.27078 v 3.1837848 h 1.99781 v 8.059973 c 0,0.587022 0.0566,1.241733 0.1695,1.964222 0.13546,0.722489 0.39494,1.411268 0.77876,2.066023 0.38383,0.632178 0.97091,1.162657 1.76113,1.591634 0.79023,0.406401 1.8517,0.609782 3.18379,0.609782 0.42898,0 0.90285,-0.03407 1.42213,-0.101802 0.5193,-0.06773 1.10638,-0.191965 1.76114,-0.372587 v -4.334619 c -0.31609,0.180622 -0.65472,0.327394 -1.01596,0.440283 -0.36125,0.09031 -0.69988,0.135392 -1.01596,0.135392 -0.6096,0 -1.12907,-0.180841 -1.55805,-0.542086 -0.42898,-0.383822 -0.64337,-1.015992 -0.64337,-1.896525 v -7.518404 h 4.23334 V 6.231661 h -4.23334 V 2.2350057 Z m 68.489874,0 -0.03411,0.4402832 c -0.112889,1.3546666 -0.439986,2.3710594 -0.981852,3.0483927 -0.519289,0.6547556 -1.399921,1.049474 -2.641699,1.1849406 h -0.271302 v 3.1837848 h 1.998328 v 8.059973 c 0,0.587022 0.05661,1.241733 0.169499,1.964222 0.135466,0.722489 0.394941,1.411268 0.778764,2.066023 0.383822,0.632178 0.97091,1.162657 1.761132,1.591634 0.790222,0.406401 1.85118,0.609782 3.183269,0.609782 0.428978,0 0.903363,-0.03407 1.422652,-0.101802 0.519289,-0.06773 1.106377,-0.191965 1.761133,-0.372587 v -4.334619 c -0.316089,0.180622 -0.654715,0.327394 -1.015959,0.440283 -0.361244,0.09031 -0.69987,0.135392 -1.015959,0.135392 -0.6096,0 -1.129067,-0.180841 -1.558044,-0.542086 -0.428978,-0.383822 -0.643372,-1.015992 -0.643372,-1.896525 v -7.518404 h 4.233334 V 6.231661 h -4.233334 V 2.2350057 Z m -12.796118,3.5222656 c -1.490133,0 -2.811082,0.2369344 -3.962548,0.7110677 -1.128889,0.4515556 -2.020534,1.1062657 -2.675289,1.9642212 -0.632178,0.8353778 -0.948263,1.8517708 -0.948263,3.0483928 0,0.880533 0.169312,1.625406 0.507979,2.235006 0.361245,0.587022 0.869183,1.083948 1.523938,1.490348 0.654756,0.383822 1.433698,0.722448 2.336809,1.015959 0.903111,0.270933 1.896447,0.530408 2.98018,0.778763 0.925689,0.225778 1.659549,0.42916 2.201416,0.609782 0.541866,0.180622 0.925573,0.383488 1.15135,0.609265 0.248356,0.225778 0.372588,0.530851 0.372588,0.914673 0,0.632178 -0.282016,1.095035 -0.84646,1.388546 -0.564445,0.270933 -1.275765,0.406177 -2.13372,0.406177 -0.8128,0 -1.512592,-0.112703 -2.099614,-0.338481 -0.564444,-0.248355 -1.00476,-0.632061 -1.320849,-1.151351 -0.316087,-0.541866 -0.4854,-1.230646 -0.50798,-2.066023 l -4.267439,0.406176 c -0.06773,1.2192 0.09057,2.269146 0.474389,3.149679 0.383822,0.857956 0.936842,1.546735 1.65933,2.066024 0.745067,0.519288 1.614171,0.891983 2.607593,1.117761 1.016,0.248356 2.111027,0.372587 3.285071,0.372587 1.670756,0 3.081867,-0.21491 4.233333,-0.643888 1.151467,-0.451556 2.021088,-1.083726 2.60811,-1.896525 0.6096,-0.835378 0.914156,-1.794645 0.914156,-2.878378 0,-1.038577 -0.225923,-1.88514 -0.677478,-2.539896 -0.428978,-0.677334 -1.004537,-1.208329 -1.727026,-1.592151 -0.699911,-0.4064 -1.467324,-0.722485 -2.302702,-0.948263 -0.8128,-0.248356 -1.60327,-0.45122 -2.370915,-0.609265 -0.903111,-0.2032 -1.647984,-0.384041 -2.235006,-0.542086 -0.587022,-0.180622 -1.038867,-0.406544 -1.354956,-0.677478 -0.293511,-0.270933 -0.440283,-0.62057 -0.440283,-1.049548 0,-0.519289 0.236935,-0.937065 0.711068,-1.2531536 0.496711,-0.3386667 1.174479,-0.5079793 2.032434,-0.5079793 0.722489,0 1.34313,0.1352434 1.862418,0.4061767 0.541867,0.2483552 0.948114,0.6210502 1.219047,1.1177612 0.270934,0.496711 0.372625,1.10634 0.304891,1.828829 l 4.199744,-0.406177 c 0.158045,-1.580444 -0.101947,-2.8447832 -0.779281,-3.7930499 -0.677333,-0.9708444 -1.603047,-1.6711524 -2.777091,-2.1001302 -1.151467,-0.4289778 -2.404277,-0.6433716 -3.758944,-0.6433716 z m 55.371814,0 c -0.925688,0 -1.862414,0.1127029 -2.810681,0.3384807 -0.948266,0.2257777 -1.81737,0.5984723 -2.607593,1.1177612 -0.790222,0.5192888 -1.422391,1.2306088 -1.896525,2.1337199 -0.451555,0.8805329 -0.677478,1.9980999 -0.677478,3.3527669 l 4.368726,0.372587 c 0,-0.880533 0.169312,-1.569312 0.507979,-2.066024 0.361245,-0.496711 0.813089,-0.835336 1.354956,-1.0159583 0.541867,-0.2032 1.072346,-0.304891 1.591634,-0.304891 0.587022,0 1.094961,0.090679 1.523938,0.2713013 0.451556,0.180622 0.801193,0.451109 1.049549,0.812353 0.248355,0.338667 0.372587,0.756443 0.372587,1.253154 0,0.338667 -0.101174,0.60967 -0.304374,0.81287 -0.2032,0.180623 -0.609964,0.338923 -1.219564,0.47439 -0.587022,0.112888 -1.478667,0.282201 -2.675289,0.507979 -0.880533,0.158045 -1.749637,0.349898 -2.607593,0.575676 -0.857955,0.225777 -1.648425,0.541862 -2.370915,0.948262 -0.722488,0.4064 -1.298048,0.959419 -1.727026,1.65933 -0.4064,0.677334 -0.609782,1.557966 -0.609782,2.6417 0,1.174044 0.248463,2.11077 0.745174,2.810681 0.519289,0.69991 1.173999,1.219377 1.964221,1.558044 0.8128,0.316089 1.681904,0.47439 2.607593,0.47439 1.2192,0 2.303214,-0.259992 3.251481,-0.779281 0.948267,-0.541866 1.71568,-1.253186 2.302702,-2.13372 0.587023,-0.880533 0.937177,-1.851328 1.050065,-2.912483 h 0.203089 c 0,0.948267 -0.01153,1.862968 -0.03411,2.743501 -0.02257,0.880534 -0.04512,1.749637 -0.0677,2.607593 h 4.301546 c 0,-0.767644 -0.01153,-1.535057 -0.03411,-2.302702 v -2.336808 -2.336808 -3.217375 c 0,-1.286932 -0.158301,-2.42704 -0.47439,-3.420463 -0.316088,-1.0159999 -0.789957,-1.8630799 -1.422135,-2.5404132 -0.632178,-0.6999111 -1.422649,-1.218861 -2.370915,-1.5575277 -0.948266,-0.3612444 -2.043293,-0.5420858 -3.285071,-0.5420858 z m -74.35412,0.067696 c -0.76764,0 -1.46744,0.2484631 -2.09961,0.7451742 -0.63218,0.4967111 -1.15165,1.309722 -1.55805,2.4386108 -0.4064,1.1288887 -0.6774,2.6637147 -0.81287,4.6054037 h -0.27078 l 0.1018,-7.3824951 h -4.26744 l 0.0341,8.4325601 v 9.347233 h 4.8426 v -6.77323 c 0,-1.309511 0.13576,-2.416067 0.40669,-3.319177 0.29351,-0.925689 0.69976,-1.62548 1.21905,-2.099613 0.54186,-0.474134 1.20811,-0.711068 1.99833,-0.711068 0.38382,0 0.80108,0.06762 1.25263,0.203088 0.45156,0.112889 0.9034,0.29373 1.35496,0.542086 l 0.27078,-5.3852011 c -0.42898,-0.2257777 -0.85777,-0.3835617 -1.28674,-0.4738729 -0.4064,-0.1128888 -0.80163,-0.1694987 -1.18546,-0.1694987 z m -58.3184,0.4066936 v 9.5503211 c 0,1.196623 0.0791,2.269109 0.23719,3.217375 0.15805,0.925689 0.39498,1.738183 0.71107,2.438094 0.31609,0.699911 0.69979,1.275988 1.15135,1.727543 0.47413,0.428979 1.01614,0.756075 1.62574,0.981853 0.6096,0.225777 1.29838,0.338997 2.06603,0.338997 1.19661,0 2.21249,-0.259992 3.04787,-0.779281 0.83538,-0.519289 1.5011,-1.331783 1.99781,-2.438094 0.49671,-1.106311 0.82433,-2.56302 0.98237,-4.369242 h 0.2372 l -0.10181,7.112227 h 4.19975 V 15.714286 6.231661 h -4.87722 v 6.603731 c 0,1.264356 -0.0902,2.359382 -0.27079,3.285071 -0.18062,0.925689 -0.4401,1.68209 -0.77876,2.269112 -0.33867,0.587022 -0.74491,1.038867 -1.21905,1.354956 -0.47413,0.293511 -0.9936,0.439767 -1.55804,0.439767 -0.63218,0 -1.12911,-0.146256 -1.49035,-0.439767 -0.33867,-0.293511 -0.58713,-0.677734 -0.74518,-1.151867 -0.15802,-0.474134 -0.24818,-0.993084 -0.27078,-1.557528 -0.0226,-0.564445 -0.0336,-1.106452 -0.0336,-1.625741 V 6.231661 Z m 30.6834,0 v 9.5503211 c 0,1.196623 0.0786,2.269109 0.23667,3.217375 0.15805,0.925689 0.3955,1.738183 0.71159,2.438094 0.31609,0.699911 0.6998,1.275988 1.15135,1.727543 0.47413,0.428979 1.01614,0.756075 1.62574,0.981853 0.6096,0.225777 1.29786,0.338997 2.06551,0.338997 1.19662,0 2.21302,-0.259992 3.04839,-0.779281 0.83538,-0.519289 1.5011,-1.331783 1.99781,-2.438094 0.49671,-1.106311 0.82433,-2.56302 0.98237,-4.369242 h 0.23668 l -0.10129,7.112227 h 4.19923 V 15.714286 6.231661 h -4.87671 v 6.603731 c 0,1.264356 -0.0901,2.359382 -0.27078,3.285071 -0.18062,0.925689 -0.4401,1.68209 -0.77876,2.269112 -0.33867,0.587022 -0.74543,1.038867 -1.21957,1.354956 -0.47413,0.293511 -0.99308,0.439767 -1.55753,0.439767 -0.63217,0 -1.1291,-0.146256 -1.49034,-0.439767 -0.33868,-0.293511 -0.58714,-0.677734 -0.74518,-1.151867 -0.15802,-0.474134 -0.24818,-0.993084 -0.27078,-1.557528 -0.0226,-0.564445 -0.0341,-1.106452 -0.0341,-1.625741 V 6.231661 Z m 31.834229,0 V 24.011454 h 4.877222 V 6.231661 Z m 36.858732,0 V 24.011454 h 4.876705 V 6.231661 Z m 36.084103,9.3053751 -0.01085,0.244946 c 0,0.925689 -0.135243,1.715643 -0.406177,2.370398 -0.270933,0.632178 -0.621088,1.151645 -1.050065,1.558045 -0.428978,0.383822 -0.902847,0.677366 -1.422136,0.880566 -0.49671,0.180623 -0.971096,0.270785 -1.422652,0.270785 -0.677333,0 -1.230352,-0.169313 -1.65933,-0.50798 -0.428978,-0.361244 -0.643372,-0.857654 -0.643372,-1.489831 0,-0.564445 0.146773,-1.004761 0.440284,-1.32085 0.316089,-0.338666 0.722335,-0.598658 1.219047,-0.77928 0.496711,-0.180622 1.038718,-0.327394 1.62574,-0.440284 0.587022,-0.112888 1.162582,-0.214063 1.727027,-0.304374 0.564444,-0.112889 1.072382,-0.259661 1.523938,-0.440283 0.03093,-0.01178 0.04887,-0.0295 0.07855,-0.04186 z m -81.435854,10.536308 v 5.757271 h 0.77049 v -5.757271 z m 6.42596,0 v 1.26969 c 0,0.141111 0.006,0.299412 0.0171,0.47439 0.0169,0.169333 0.0368,0.361187 0.0594,0.575675 0.0225,0.208844 0.0535,0.445779 0.093,0.711068 h -0.0847 c -0.0508,-0.389467 -0.14096,-0.71394 -0.27078,-0.973584 -0.12983,-0.259645 -0.30228,-0.454638 -0.51677,-0.584461 -0.20884,-0.135466 -0.46255,-0.203088 -0.76171,-0.203088 -0.33302,0 -0.62971,0.08754 -0.88935,0.262516 -0.254,0.169333 -0.45424,0.426185 -0.601,0.770496 -0.1411,0.338666 -0.21187,0.759066 -0.21187,1.261421 0,0.536223 0.0792,0.97654 0.2372,1.32085 0.15804,0.338667 0.36718,0.58713 0.62683,0.745174 0.26529,0.158045 0.55307,0.237195 0.86351,0.237195 0.2653,0 0.49698,-0.05661 0.69453,-0.169499 0.2032,-0.112889 0.37252,-0.287966 0.50798,-0.525032 0.14112,-0.242711 0.24805,-0.544644 0.32143,-0.905888 h 0.0677 l -0.0847,1.490348 h 0.72812 l -0.0253,-1.921846 0.017,-3.835425 z m 22.580536,0 0.01705,3.750675 -0.01705,2.006596 h 0.728121 l -0.09302,-1.490348 h 0.0677 c 0.05644,0.349955 0.152372,0.6435 0.287838,0.880566 0.141111,0.237067 0.316188,0.417908 0.525033,0.542086 0.208844,0.118533 0.445779,0.177767 0.711067,0.177767 0.310445,0 0.595601,-0.07915 0.855245,-0.237195 0.265289,-0.158044 0.473919,-0.406507 0.626319,-0.745174 0.158044,-0.34431 0.237195,-0.787251 0.237195,-1.329118 0,-0.502355 -0.07025,-0.922754 -0.211357,-1.261421 -0.141111,-0.338667 -0.338728,-0.592895 -0.592729,-0.762228 -0.248355,-0.174978 -0.539276,-0.262516 -0.872298,-0.262516 -0.299155,0 -0.558631,0.07076 -0.778764,0.211873 -0.220133,0.141111 -0.39521,0.341353 -0.525032,0.600997 -0.129825,0.259645 -0.217363,0.569966 -0.262517,0.931209 h -0.08475 c 0.03951,-0.265288 0.07044,-0.507987 0.09302,-0.72812 0.02823,-0.225778 0.04814,-0.434408 0.05943,-0.626319 0.01129,-0.191911 0.01705,-0.366989 0.01705,-0.525032 v -1.134298 z m -45.087686,0.02532 c -0.16369,0 -0.28792,0.03355 -0.37259,0.101286 -0.0847,0.06773 -0.12712,0.169425 -0.12712,0.304891 0,0.129822 0.0425,0.231513 0.12712,0.304891 0.0847,0.07338 0.2089,0.110071 0.37259,0.110071 0.16369,0 0.28792,-0.03669 0.37259,-0.110071 0.0847,-0.07338 0.12712,-0.171929 0.12712,-0.296106 0,-0.141111 -0.0425,-0.245943 -0.12712,-0.313676 -0.0847,-0.06773 -0.2089,-0.101286 -0.37259,-0.101286 z m 6.1805,0 c -0.16369,0 -0.28792,0.03355 -0.37259,0.101286 -0.0847,0.06773 -0.1266,0.169425 -0.1266,0.304891 0,0.129822 0.0419,0.231513 0.1266,0.304891 0.0847,0.07338 0.2089,0.110071 0.37259,0.110071 0.16369,0 0.28792,-0.03669 0.37259,-0.110071 0.0847,-0.07338 0.12712,-0.171929 0.12712,-0.296106 0,-0.141111 -0.0425,-0.245943 -0.12712,-0.313676 -0.0847,-0.06773 -0.2089,-0.101286 -0.37259,-0.101286 z m 26.867611,0 c -0.163689,0 -0.287921,0.03355 -0.372587,0.101286 -0.08467,0.06773 -0.127124,0.169425 -0.127124,0.304891 0,0.129822 0.04246,0.231513 0.127124,0.304891 0.08467,0.07338 0.208898,0.110071 0.372587,0.110071 0.163689,0 0.28792,-0.03669 0.372587,-0.110071 0.08467,-0.07338 0.127124,-0.171929 0.127124,-0.296106 0,-0.141111 -0.04246,-0.245943 -0.127124,-0.313676 -0.08467,-0.06773 -0.208898,-0.101286 -0.372587,-0.101286 z m -49.786621,1.244369 c -0.20884,0 -0.41485,0.0283 -0.61805,0.08475 -0.2032,0.0508 -0.39243,0.135715 -0.56741,0.254248 -0.17497,0.118533 -0.31912,0.276317 -0.43202,0.473873 -0.11286,0.197555 -0.18049,0.442878 -0.20309,0.736389 l 0.71986,0.101803 c 0.0169,-0.242711 0.0788,-0.434564 0.18603,-0.575676 0.11289,-0.146757 0.25127,-0.251072 0.41496,-0.313159 0.16369,-0.06209 0.32724,-0.09302 0.49093,-0.09302 0.18062,0 0.34155,0.03355 0.48266,0.101285 0.14676,0.06773 0.2626,0.166801 0.34726,0.296623 0.0847,0.124178 0.12713,0.276198 0.12713,0.45682 0,0.09596 -0.0257,0.169341 -0.0765,0.220141 -0.0452,0.0508 -0.14371,0.09326 -0.29611,0.127124 -0.1524,0.02822 -0.38933,0.07068 -0.71107,0.127124 -0.24834,0.03951 -0.4858,0.08721 -0.71158,0.143661 -0.22014,0.05645 -0.41776,0.135595 -0.59273,0.237195 -0.16933,0.1016 -0.30196,0.23422 -0.39791,0.397908 -0.096,0.163689 -0.14366,0.372836 -0.14366,0.626835 0,0.282222 0.0592,0.510769 0.17777,0.685747 0.11853,0.174978 0.2737,0.304457 0.4656,0.389123 0.19162,0.0789 0.40358,0.118734 0.63459,0.118856 h 5.2e-4 c 0.32128,-1.58e-4 0.60298,-0.07092 0.84542,-0.211873 0.24272,-0.146756 0.44033,-0.341233 0.59273,-0.583944 0.15242,-0.248355 0.25149,-0.527747 0.29662,-0.838192 h 0.0677 c -0.0169,0.270933 -0.0337,0.530408 -0.0506,0.778764 -0.0113,0.242711 -0.0286,0.491174 -0.0512,0.745174 h 0.72812 c 0,-0.214489 -0.002,-0.428883 -0.008,-0.643371 0,-0.214489 -0.003,-0.4294 -0.008,-0.643889 v -0.643371 -0.829407 c 0,-0.287866 -0.0419,-0.53947 -0.12661,-0.753959 -0.0847,-0.220133 -0.20365,-0.400459 -0.35605,-0.541569 -0.1524,-0.146756 -0.33587,-0.254211 -0.55035,-0.321944 -0.20886,-0.07338 -0.43426,-0.110071 -0.67696,-0.110071 z m 4.71599,0 c -0.28222,0 -0.53645,0.06762 -0.76223,0.203088 -0.22577,0.129823 -0.41186,0.355745 -0.55862,0.677478 -0.14113,0.316089 -0.23444,0.750642 -0.27957,1.303797 h -0.076 l 0.12661,-2.065507 h -0.71934 l 0.0165,2.294433 v 2.074292 h 0.77101 V 30.61105 c 0,-0.575732 0.0451,-1.052226 0.1354,-1.430403 0.096,-0.378178 0.23696,-0.66071 0.42323,-0.846977 0.19191,-0.191911 0.42622,-0.287838 0.7028,-0.287838 0.22013,0 0.38944,0.05347 0.50797,0.160714 0.12418,0.1016 0.21172,0.23422 0.26252,0.397909 0.0565,0.158044 0.09,0.330497 0.10129,0.516764 0.0169,0.186266 0.0253,0.363968 0.0253,0.533301 v 2.176094 h 0.77049 v -2.252059 c 0,-0.203199 -0.011,-0.409205 -0.0336,-0.61805 -0.0226,-0.208844 -0.065,-0.409602 -0.12712,-0.601513 -0.0564,-0.191912 -0.13822,-0.363848 -0.24546,-0.516248 -0.10724,-0.158045 -0.24826,-0.279652 -0.42323,-0.364319 -0.16934,-0.09031 -0.37533,-0.135392 -0.61805,-0.135392 z m 5.96036,0 c -0.38947,0 -0.74225,0.08754 -1.05834,0.262516 -0.31044,0.169333 -0.5589,0.423561 -0.74517,0.762228 -0.18627,0.338667 -0.27957,0.76483 -0.27957,1.278474 0,0.508 0.0907,0.934164 0.2713,1.278475 0.18626,0.338667 0.43735,0.592378 0.75344,0.761711 0.32174,0.169333 0.6829,0.254248 1.08366,0.254248 0.38946,0 0.73962,-0.08178 1.05006,-0.245463 0.31609,-0.163689 0.56455,-0.415293 0.74518,-0.753959 0.18062,-0.338666 0.27078,-0.764831 0.27078,-1.278475 0,-0.513644 -0.0933,-0.939809 -0.27957,-1.278475 -0.18062,-0.344311 -0.42908,-0.603786 -0.74517,-0.778764 -0.31609,-0.174978 -0.67149,-0.262516 -1.0666,-0.262516 z m 15.68018,0 c -0.28222,0 -0.53593,0.06762 -0.76171,0.203088 -0.22578,0.129823 -0.41239,0.355745 -0.55914,0.677478 -0.14114,0.316089 -0.23392,0.750642 -0.27906,1.303797 h -0.0765 l 0.12713,-2.065507 h -0.71986 l 0.0171,2.294433 v 2.074292 h 0.77049 V 30.61105 c 0,-0.575732 0.0451,-1.052226 0.1354,-1.430403 0.096,-0.378178 0.23696,-0.66071 0.42323,-0.846977 0.1919,-0.191911 0.42621,-0.287838 0.70279,-0.287838 0.22014,0 0.38945,0.05347 0.50798,0.160714 0.12418,0.1016 0.21172,0.23422 0.26252,0.397909 0.0565,0.158044 0.0905,0.330497 0.1018,0.516764 0.0169,0.186266 0.0253,0.363968 0.0253,0.533301 v 2.176094 h 0.7705 v -2.252059 c 0,-0.203199 -0.0115,-0.409205 -0.0341,-0.61805 -0.0226,-0.208844 -0.0645,-0.409602 -0.1266,-0.601513 -0.0564,-0.191912 -0.13874,-0.363848 -0.24598,-0.516248 -0.10725,-0.158045 -0.24826,-0.279652 -0.42323,-0.364319 -0.16934,-0.09031 -0.37534,-0.135392 -0.61805,-0.135392 z m 3.99924,0 c -0.20885,0 -0.41485,0.0283 -0.61805,0.08475 -0.2032,0.0508 -0.39244,0.135715 -0.56741,0.254248 -0.17498,0.118533 -0.31861,0.276317 -0.4315,0.473873 -0.11287,0.197555 -0.18101,0.442878 -0.20361,0.736389 l 0.71986,0.101803 c 0.0169,-0.242711 0.0788,-0.434564 0.18603,-0.575676 0.11289,-0.146757 0.25127,-0.251072 0.41496,-0.313159 0.16369,-0.06209 0.32724,-0.09302 0.49093,-0.09302 0.18063,0 0.34155,0.03355 0.48266,0.101285 0.14676,0.06773 0.2626,0.166801 0.34726,0.296623 0.0847,0.124178 0.12713,0.276198 0.12713,0.45682 0,0.09596 -0.0257,0.169341 -0.0765,0.220141 -0.0452,0.0508 -0.14371,0.09326 -0.29611,0.127124 -0.1524,0.02822 -0.38933,0.07068 -0.71107,0.127124 -0.24835,0.03951 -0.4858,0.08721 -0.71158,0.143661 -0.22013,0.05645 -0.41723,0.135595 -0.59221,0.237195 -0.16934,0.1016 -0.30196,0.23422 -0.39791,0.397908 -0.096,0.163689 -0.14418,0.372836 -0.14418,0.626835 0,0.282222 0.0592,0.510769 0.17777,0.685747 0.11853,0.174978 0.2737,0.304457 0.4656,0.389123 0.19162,0.0789 0.40359,0.118734 0.63459,0.118856 h 5.2e-4 c 0.32128,-1.58e-4 0.60351,-0.07092 0.84594,-0.211873 0.24271,-0.146756 0.44033,-0.341233 0.59273,-0.583944 0.15242,-0.248355 0.25097,-0.527747 0.2961,-0.838192 h 0.0677 c -0.0169,0.270933 -0.0337,0.530408 -0.0506,0.778764 -0.0113,0.242711 -0.0286,0.491174 -0.0512,0.745174 h 0.72812 c 0,-0.214489 -0.002,-0.428883 -0.008,-0.643371 0,-0.214489 -0.003,-0.4294 -0.008,-0.643889 v -0.643371 -0.829407 c 0,-0.287866 -0.0419,-0.53947 -0.12661,-0.753959 -0.0847,-0.220133 -0.20313,-0.400459 -0.35553,-0.541569 -0.1524,-0.146756 -0.33586,-0.254211 -0.55036,-0.321944 -0.20884,-0.07338 -0.43477,-0.110071 -0.67747,-0.110071 z m 12.350146,0 c -0.338666,0 -0.635352,0.06237 -0.889351,0.186552 -0.254,0.124178 -0.465253,0.293491 -0.634585,0.507979 -0.16369,0.214489 -0.28792,0.465576 -0.37259,0.753442 -0.0847,0.282222 -0.12712,0.584155 -0.12712,0.905888 0,0.333022 0.0451,0.637579 0.13539,0.914156 0.0903,0.276578 0.22293,0.51403 0.39791,0.711585 0.174974,0.197556 0.39251,0.349576 0.652154,0.45682 0.259645,0.107244 0.561577,0.16123 0.905888,0.16123 0.299155,0 0.564395,-0.04246 0.795817,-0.127124 0.231422,-0.08467 0.425899,-0.20051 0.583944,-0.347266 0.163688,-0.152399 0.285296,-0.3301 0.364319,-0.5333 0.07902,-0.2032 0.118339,-0.423359 0.118339,-0.660425 l -0.728121,-0.05943 c 0.01129,0.112888 2.77e-4,0.234497 -0.03359,0.364319 -0.03387,0.124178 -0.0931,0.242645 -0.177767,0.355534 -0.08467,0.107244 -0.20051,0.197406 -0.347265,0.270784 -0.146756,0.06773 -0.330221,0.101803 -0.550354,0.101803 -0.434623,0 -0.770624,-0.141008 -1.007691,-0.42323 -0.230866,-0.281543 -0.34671,-0.687242 -0.347266,-1.215947 l 3.081983,-0.05426 c 0.02823,-0.344311 0.0057,-0.654632 -0.0677,-0.931209 -0.06773,-0.282222 -0.180436,-0.522297 -0.338481,-0.719853 -0.158044,-0.197555 -0.355662,-0.350092 -0.592729,-0.457336 -0.237066,-0.107245 -0.510694,-0.160714 -0.821138,-0.160714 z m 4.168221,0 c -0.344311,0 -0.646243,0.05661 -0.905888,0.169499 -0.259644,0.107244 -0.459886,0.259781 -0.600997,0.457336 -0.14111,0.197555 -0.211873,0.431349 -0.211873,0.702283 0,0.231421 0.04508,0.420652 0.135392,0.567407 0.09596,0.146756 0.223328,0.265223 0.381372,0.355534 0.163689,0.09031 0.349778,0.163695 0.558622,0.220141 0.208844,0.05645 0.425862,0.107293 0.65164,0.152446 0.231423,0.04515 0.434804,0.09338 0.609782,0.144177 0.180622,0.0508 0.32163,0.121046 0.42323,0.211357 0.1016,0.08467 0.152446,0.206274 0.152446,0.364319 0,0.197555 -0.09279,0.352715 -0.279053,0.465604 -0.180622,0.112889 -0.437473,0.169499 -0.770496,0.169499 -0.242711,0 -0.457622,-0.03407 -0.643888,-0.101803 -0.186267,-0.07338 -0.327275,-0.191844 -0.42323,-0.355534 -0.09596,-0.163688 -0.135272,-0.383847 -0.118339,-0.660424 l -0.711068,0.07596 c -0.01693,0.3048 0.01662,0.564792 0.101286,0.779281 0.09031,0.208843 0.220307,0.378156 0.38964,0.507979 0.169333,0.12982 0.372199,0.222606 0.609265,0.279053 0.237067,0.06209 0.493918,0.09353 0.770496,0.09353 0.378178,0 0.703168,-0.05085 0.974101,-0.152445 0.270933,-0.1016 0.479562,-0.248373 0.626318,-0.440284 0.146755,-0.19191 0.220142,-0.417833 0.220142,-0.677478 0,-0.253999 -0.05347,-0.460005 -0.160714,-0.61805 -0.1016,-0.158044 -0.23736,-0.282276 -0.406693,-0.372587 -0.163689,-0.09031 -0.347155,-0.157935 -0.550354,-0.203088 -0.197556,-0.0508 -0.397798,-0.09588 -0.600997,-0.135393 -0.225778,-0.03951 -0.42916,-0.08197 -0.609782,-0.127124 -0.180623,-0.0508 -0.324255,-0.121562 -0.431499,-0.211873 -0.101599,-0.09031 -0.152445,-0.21979 -0.152445,-0.389123 0,-0.197556 0.0844,-0.352717 0.253731,-0.465605 0.169333,-0.118533 0.395257,-0.177767 0.677478,-0.177767 0.220133,0 0.411987,0.03932 0.575676,0.118339 0.169333,0.07338 0.299329,0.186081 0.38964,0.338481 0.09596,0.146755 0.135272,0.34175 0.118339,0.58446 l 0.694531,-0.09302 c 0.02258,-0.372533 -0.04504,-0.674466 -0.203088,-0.905888 -0.158045,-0.231422 -0.372955,-0.401252 -0.643888,-0.508496 -0.270933,-0.107245 -0.567102,-0.160714 -0.888835,-0.160714 z m 10.964189,0 c -0.282222,0 -0.535933,0.06762 -0.761711,0.203088 -0.225778,0.129823 -0.412384,0.355745 -0.559139,0.677478 -0.141113,0.316089 -0.233899,0.750642 -0.279053,1.303797 h -0.07648 l 0.127124,-2.065507 h -0.719853 l 0.01705,2.294433 v 2.074292 h 0.770495 V 30.61105 c 0,-0.575732 0.04508,-1.052226 0.135393,-1.430403 0.09596,-0.378178 0.236963,-0.66071 0.42323,-0.846977 0.191911,-0.191911 0.426221,-0.287838 0.702799,-0.287838 0.220133,0 0.389446,0.05347 0.507979,0.160714 0.124178,0.1016 0.211717,0.23422 0.262517,0.397909 0.05645,0.158044 0.09052,0.330497 0.101802,0.516764 0.01693,0.186266 0.02532,0.363968 0.02532,0.533301 v 2.176094 h 0.770495 v -2.252059 c 0,-0.203199 -0.01153,-0.409205 -0.03411,-0.61805 -0.02258,-0.208844 -0.06452,-0.409602 -0.126607,-0.601513 -0.05644,-0.191912 -0.13822,-0.363848 -0.245463,-0.516248 -0.107245,-0.158045 -0.248769,-0.279652 -0.423747,-0.364319 -0.169333,-0.09031 -0.375339,-0.135392 -0.61805,-0.135392 z m 19.349206,0 c -0.338666,0 -0.634835,0.06237 -0.888834,0.186552 -0.254,0.124178 -0.465771,0.293491 -0.635104,0.507979 -0.163689,0.214489 -0.28792,0.465576 -0.372587,0.753442 -0.08467,0.282222 -0.127124,0.584155 -0.127124,0.905888 0,0.333022 0.0456,0.637579 0.135909,0.914156 0.09031,0.276578 0.222931,0.51403 0.397909,0.711585 0.174977,0.197556 0.391995,0.349576 0.651639,0.45682 0.259645,0.107244 0.561577,0.16123 0.905888,0.16123 0.299155,0 0.564395,-0.04246 0.795817,-0.127124 0.231422,-0.08467 0.426416,-0.20051 0.584461,-0.347266 0.163688,-0.152399 0.284779,-0.3301 0.363802,-0.5333 0.07902,-0.2032 0.118856,-0.423359 0.118856,-0.660425 l -0.728121,-0.05943 c 0.01129,0.112888 -2.4e-4,0.234497 -0.03411,0.364319 -0.03387,0.124178 -0.0931,0.242645 -0.177767,0.355534 -0.08467,0.107244 -0.200509,0.197406 -0.347265,0.270784 -0.146755,0.06773 -0.330221,0.101803 -0.550354,0.101803 -0.434622,0 -0.770107,-0.141008 -1.007174,-0.42323 -0.230866,-0.281543 -0.34671,-0.687242 -0.347266,-1.215947 l 3.081983,-0.05426 c 0.02822,-0.344311 0.0057,-0.654632 -0.0677,-0.931209 -0.06773,-0.282222 -0.180953,-0.522297 -0.338998,-0.719853 -0.158044,-0.197555 -0.355662,-0.350092 -0.592728,-0.457336 -0.237067,-0.107245 -0.510694,-0.160714 -0.821139,-0.160714 z m 4.781104,0 c -0.282223,0 -0.53645,0.06762 -0.762228,0.203088 -0.225777,0.129823 -0.411866,0.355745 -0.558622,0.677478 -0.141113,0.316089 -0.234416,0.750642 -0.279569,1.303797 h -0.07596 l 0.126607,-2.065507 h -0.719335 l 0.01705,2.294433 v 2.074292 h 0.770495 V 30.61105 c 0,-0.575732 0.04508,-1.052226 0.135393,-1.430403 0.09595,-0.378178 0.236962,-0.66071 0.42323,-0.846977 0.19191,-0.191911 0.426221,-0.287838 0.702799,-0.287838 0.220133,0 0.389446,0.05347 0.507979,0.160714 0.124178,0.1016 0.211717,0.23422 0.262517,0.397909 0.05645,0.158044 0.09,0.330497 0.101286,0.516764 0.01693,0.186266 0.02532,0.363968 0.02532,0.533301 v 2.176094 h 0.770496 v -2.252059 c 0,-0.203199 -0.01101,-0.409205 -0.03359,-0.61805 -0.02258,-0.208844 -0.06504,-0.409602 -0.127124,-0.601513 -0.05644,-0.191912 -0.138219,-0.363848 -0.245463,-0.516248 -0.107245,-0.158045 -0.248253,-0.279652 -0.42323,-0.364319 -0.169334,-0.09031 -0.37534,-0.135392 -0.618051,-0.135392 z m -66.626946,0.02532 c -0.22013,0 -0.41774,0.07076 -0.59272,0.211874 -0.17498,0.141111 -0.31913,0.367033 -0.43202,0.677478 -0.11289,0.310444 -0.18627,0.722456 -0.22014,1.2361 h -0.0847 l 0.12712,-2.031917 h -0.71985 l 0.017,2.294433 v 2.074292 h 0.7705 v -1.456242 c 0,-0.462844 0.0425,-0.858079 0.12712,-1.185457 0.0847,-0.327377 0.2089,-0.57584 0.37259,-0.745174 0.16369,-0.169333 0.36131,-0.253731 0.59273,-0.253731 0.0734,0 0.15515,0.0084 0.24546,0.02532 0.0903,0.01129 0.18047,0.0396 0.27079,0.08475 l 0.0506,-0.821655 c -0.0903,-0.03951 -0.18048,-0.06782 -0.27078,-0.08475 -0.0903,-0.01693 -0.17472,-0.02532 -0.25374,-0.02532 z m 59.181922,0 c -0.220133,0 -0.417751,0.07076 -0.592729,0.211874 -0.174977,0.141111 -0.319126,0.367033 -0.432015,0.677478 -0.112889,0.310444 -0.186275,0.722456 -0.220141,1.2361 h -0.08475 l 0.127125,-2.031917 h -0.719336 l 0.01654,2.294433 v 2.074292 h 0.770496 v -1.456242 c 0,-0.462844 0.04246,-0.858079 0.127124,-1.185457 0.08467,-0.327377 0.208898,-0.57584 0.372587,-0.745174 0.163689,-0.169333 0.361307,-0.253731 0.592728,-0.253731 0.07338,0 0.155152,0.0084 0.245463,0.02532 0.09031,0.01129 0.180474,0.0396 0.270785,0.08475 l 0.05116,-0.821655 c -0.09031,-0.03951 -0.180991,-0.06782 -0.271302,-0.08475 -0.09031,-0.01693 -0.174709,-0.02532 -0.253731,-0.02532 z m -58.165962,0.09353 v 4.368725 h 0.7705 V 27.46189 Z m 3.33572,0 c -0.36689,0 -0.68874,0.05923 -0.96532,0.177767 -0.27093,0.118533 -0.4827,0.282081 -0.6351,0.490926 -0.1524,0.208843 -0.22841,0.454166 -0.22841,0.736389 0,0.299156 0.0902,0.556007 0.27078,0.770495 0.18063,0.214489 0.45163,0.347109 0.81287,0.397909 v 0.07648 c -0.36124,0.06773 -0.61809,0.155272 -0.77049,0.262516 -0.14676,0.107245 -0.22014,0.2341 -0.22014,0.380856 0,0.158044 0.0791,0.273887 0.23719,0.347265 0.15804,0.06773 0.39811,0.101286 0.71985,0.101286 v 0.07648 c -0.4064,0.07902 -0.70885,0.19749 -0.9064,0.355534 -0.19191,0.158045 -0.28784,0.355662 -0.28784,0.592729 0,0.169333 0.0566,0.318729 0.1695,0.448551 0.11289,0.135467 0.30788,0.239782 0.58446,0.313159 0.28222,0.07902 0.67169,0.118856 1.1684,0.118856 0.53058,0 0.96776,-0.04822 1.31207,-0.144177 0.34996,-0.09031 0.60943,-0.231319 0.77876,-0.42323 0.17498,-0.191911 0.26252,-0.428846 0.26252,-0.711068 0,-0.265289 -0.0619,-0.46867 -0.18604,-0.609782 -0.11853,-0.146758 -0.26792,-0.251072 -0.44855,-0.313159 -0.17497,-0.06209 -0.34743,-0.09878 -0.51676,-0.110071 -0.16934,-0.01693 -0.30195,-0.02532 -0.39791,-0.02532 h -1.32085 c -0.1016,0 -0.19753,-0.0031 -0.28784,-0.0088 -0.0847,-0.0056 -0.15229,-0.01666 -0.20309,-0.03359 -0.0508,-0.02258 -0.0765,-0.05927 -0.0765,-0.110071 0,-0.0508 0.0425,-0.113174 0.12713,-0.186551 0.0847,-0.07338 0.23983,-0.152012 0.4656,-0.236679 0.1016,0.02258 0.1949,0.03936 0.27957,0.05064 0.0847,0.0057 0.17797,0.0083 0.27957,0.0083 0.37818,0 0.69688,-0.05347 0.95653,-0.160714 0.25964,-0.107245 0.45726,-0.254017 0.59273,-0.440283 0.13547,-0.186267 0.20309,-0.398037 0.20309,-0.635104 0,-0.237066 -0.0792,-0.443072 -0.2372,-0.61805 -0.15804,-0.174978 -0.4259,-0.296069 -0.80408,-0.363802 v -0.08475 l 1.45624,0.186035 V 27.46189 Z m 2.84478,0 v 4.368725 h 0.7705 V 27.46189 Z m 26.867615,0 v 4.368725 h 0.770496 V 27.46189 Z m 3.335714,0 c -0.366889,0 -0.688739,0.05923 -0.965316,0.177767 -0.270933,0.118533 -0.482186,0.282081 -0.634586,0.490926 -0.1524,0.208843 -0.228927,0.454166 -0.228927,0.736389 0,0.299156 0.09016,0.556007 0.270785,0.770495 0.180622,0.214489 0.451626,0.347109 0.81287,0.397909 v 0.07648 c -0.361244,0.06773 -0.618096,0.155272 -0.770496,0.262516 -0.146755,0.107245 -0.220141,0.2341 -0.220141,0.380856 0,0.158044 0.07915,0.273887 0.237195,0.347265 0.158044,0.06773 0.398119,0.101286 0.719852,0.101286 v 0.07648 c -0.406399,0.07902 -0.708332,0.19749 -0.905888,0.355534 -0.191911,0.158045 -0.287837,0.355662 -0.287837,0.592729 0,0.169333 0.05609,0.318729 0.168982,0.448551 0.112889,0.135467 0.307882,0.239782 0.58446,0.313159 0.282222,0.07902 0.671693,0.118856 1.168404,0.118856 0.530578,0 0.967754,-0.04822 1.312065,-0.144177 0.349955,-0.09031 0.609947,-0.231319 0.77928,-0.42323 0.174978,-0.191911 0.262517,-0.428846 0.262517,-0.711068 0,-0.265289 -0.06237,-0.46867 -0.186552,-0.609782 -0.118534,-0.146758 -0.26793,-0.251072 -0.448552,-0.313159 -0.174977,-0.06209 -0.347431,-0.09878 -0.516764,-0.110071 -0.169333,-0.01693 -0.301953,-0.02532 -0.397909,-0.02532 h -1.320849 c -0.1016,0 -0.197527,-0.0031 -0.287838,-0.0088 -0.08467,-0.0056 -0.152288,-0.01666 -0.203088,-0.03359 -0.0508,-0.02258 -0.07597,-0.05927 -0.07597,-0.110071 0,-0.0508 0.04194,-0.113174 0.126608,-0.186551 0.08467,-0.07338 0.240343,-0.152012 0.466121,-0.236679 0.1016,0.02258 0.194386,0.03936 0.279053,0.05064 0.08467,0.0057 0.177969,0.0083 0.279569,0.0083 0.378178,0 0.696887,-0.05347 0.956531,-0.160714 0.259645,-0.107245 0.457262,-0.254017 0.592729,-0.440283 0.135466,-0.186267 0.203088,-0.398037 0.203088,-0.635104 0,-0.237066 -0.07863,-0.443072 -0.236678,-0.61805 -0.158044,-0.174978 -0.426424,-0.296069 -0.804602,-0.363802 v -0.08475 l 1.456242,0.186035 V 27.46189 Z m 13.636894,0 v 1.837097 c 0,0.191911 0.01153,0.389529 0.03411,0.592728 0.02822,0.197556 0.07331,0.386269 0.135393,0.566891 0.06209,0.180622 0.147004,0.341547 0.254248,0.482658 0.112889,0.141111 0.250756,0.254331 0.414445,0.338997 0.163689,0.08467 0.364447,0.127124 0.601513,0.127124 0.265289,0 0.504847,-0.06237 0.719336,-0.186552 0.220133,-0.124177 0.400975,-0.321795 0.542086,-0.592728 0.146753,-0.276577 0.240056,-0.637744 0.279569,-1.083655 h 0.0677 l -0.08475,1.024227 c 0,0.248355 -0.02254,0.485806 -0.0677,0.711584 -0.04515,0.220133 -0.124306,0.411987 -0.237195,0.575676 -0.107244,0.163688 -0.254016,0.290544 -0.440283,0.380855 -0.180622,0.09595 -0.409168,0.144177 -0.685746,0.144177 -0.242711,0 -0.479646,-0.04508 -0.711068,-0.135392 -0.231422,-0.08467 -0.426417,-0.23458 -0.58446,-0.449068 l -0.363802,0.635103 c 0.129821,0.1524 0.281841,0.276631 0.456819,0.372587 0.174978,0.101602 0.366831,0.174989 0.575676,0.220142 0.208843,0.0508 0.420614,0.07596 0.635103,0.07596 0.310444,0 0.578825,-0.03932 0.804602,-0.118339 0.225778,-0.07902 0.415007,-0.189101 0.567407,-0.330212 0.158045,-0.135467 0.2849,-0.290628 0.380856,-0.465605 0.09596,-0.174978 0.169341,-0.355819 0.220141,-0.542086 0.0508,-0.186266 0.08435,-0.369731 0.101286,-0.550354 0.02258,-0.186266 0.03411,-0.358203 0.03411,-0.516247 V 27.46189 h -0.770495 v 1.201993 c 0,0.338667 -0.0283,0.634835 -0.08475,0.888835 -0.05644,0.254 -0.13822,0.468911 -0.245464,0.643888 -0.101599,0.169334 -0.228454,0.296189 -0.380855,0.380856 -0.146755,0.07902 -0.310821,0.118339 -0.491443,0.118339 -0.180622,0 -0.330018,-0.03669 -0.448551,-0.110071 -0.112891,-0.07902 -0.20043,-0.177573 -0.262516,-0.296106 -0.06209,-0.124178 -0.107173,-0.256797 -0.135393,-0.397909 -0.0282,-0.146755 -0.04498,-0.287763 -0.05064,-0.423229 -0.0057,-0.141112 -0.0088,-0.265343 -0.0088,-0.372588 V 27.46189 Z m -55.710293,0.541569 c 0.2032,0 0.38666,0.03983 0.55035,0.118855 0.16369,0.07902 0.29893,0.191725 0.40618,0.338481 0.11291,0.146755 0.20045,0.324456 0.26252,0.533301 0.0621,0.208844 0.093,0.443155 0.093,0.702799 0,0.259644 -0.0283,0.488191 -0.0847,0.685747 -0.0564,0.197555 -0.14083,0.364244 -0.25373,0.499711 -0.11288,0.135467 -0.24864,0.239782 -0.40669,0.313159 -0.15804,0.07338 -0.33574,0.110071 -0.5333,0.110071 -0.2032,0 -0.38929,-0.03669 -0.55862,-0.110071 -0.16369,-0.07902 -0.30207,-0.189101 -0.41497,-0.330213 -0.1129,-0.146755 -0.20045,-0.324456 -0.26251,-0.5333 -0.0565,-0.208845 -0.0847,-0.440532 -0.0847,-0.694532 0,-0.248355 0.0283,-0.471137 0.0847,-0.668693 0.0564,-0.203199 0.14135,-0.375653 0.25425,-0.516764 0.11288,-0.146755 0.24813,-0.256318 0.40617,-0.329696 0.16369,-0.07902 0.34454,-0.118855 0.54209,-0.118855 z m 9.01702,0.0088 c 0.3048,0 0.55275,0.08177 0.74466,0.245463 0.19191,0.163688 0.28783,0.374942 0.28783,0.634586 0,0.259645 -0.0928,0.465651 -0.27905,0.61805 -0.18062,0.1524 -0.42332,0.228927 -0.72812,0.228927 -0.20885,0 -0.39545,-0.03669 -0.55914,-0.110071 -0.16369,-0.07338 -0.29317,-0.175068 -0.38912,-0.304891 -0.0903,-0.129822 -0.13539,-0.279218 -0.13539,-0.448551 0,-0.242711 0.0959,-0.446093 0.28783,-0.609782 0.19756,-0.169333 0.45441,-0.253731 0.7705,-0.253731 z m 23.020816,0 c 0.259644,0 0.470897,0.05923 0.634587,0.177767 0.163688,0.112889 0.282672,0.273296 0.35605,0.482141 0.04843,0.127994 0.07334,0.273412 0.08785,0.426847 l -2.289266,0.04134 c 0.02193,-0.115837 0.04723,-0.229105 0.08475,-0.332279 0.09596,-0.254 0.236963,-0.448994 0.423229,-0.584461 0.191912,-0.141111 0.426223,-0.211356 0.7028,-0.211356 z m 10.027295,0 c 0.3048,0 0.553264,0.08177 0.745174,0.245463 0.191911,0.163688 0.287838,0.374942 0.287838,0.634586 0,0.259645 -0.0933,0.465651 -0.27957,0.61805 -0.180622,0.1524 -0.42332,0.228927 -0.728121,0.228927 -0.208843,0 -0.394933,-0.03669 -0.558622,-0.110071 -0.163688,-0.07338 -0.293684,-0.175068 -0.38964,-0.304891 -0.09031,-0.129822 -0.135392,-0.279218 -0.135392,-0.448551 0,-0.242711 0.09593,-0.446093 0.287837,-0.609782 0.197556,-0.169333 0.454408,-0.253731 0.770496,-0.253731 z m 24.454321,0 c 0.259645,0 0.471414,0.05923 0.635104,0.177767 0.163688,0.112889 0.282155,0.273296 0.355533,0.482141 0.04843,0.127994 0.07386,0.273412 0.08837,0.426847 l -2.289266,0.04134 c 0.02193,-0.115829 0.04672,-0.229112 0.08423,-0.332279 0.09596,-0.254 0.236963,-0.448994 0.42323,-0.584461 0.19191,-0.141111 0.426221,-0.211356 0.702799,-0.211356 z m -39.186242,0.02532 c 0.18627,0 0.34719,0.03932 0.48266,0.118339 0.14111,0.07902 0.25644,0.183337 0.34675,0.313159 0.0959,0.124178 0.17246,0.259938 0.22893,0.406694 0.0621,0.14111 0.104,0.279495 0.1266,0.414962 0.0282,0.129822 0.0424,0.242525 0.0424,0.33848 v 0.0677 c 0,0.141111 -0.0252,0.302036 -0.076,0.482658 -0.0452,0.180622 -0.11854,0.3557 -0.22014,0.525033 -0.096,0.163689 -0.22595,0.298932 -0.38964,0.406177 -0.15791,0.107155 -0.34699,0.160625 -0.56689,0.160713 h -5.1e-4 c -0.23684,-9.9e-5 -0.44007,-0.06458 -0.60927,-0.194303 -0.16369,-0.135467 -0.29054,-0.324696 -0.38086,-0.567407 -0.0847,-0.242711 -0.12712,-0.525244 -0.12712,-0.846977 0,-0.338666 0.0477,-0.62907 0.14366,-0.871782 0.096,-0.242711 0.22858,-0.4288 0.39791,-0.558622 0.16933,-0.129822 0.37009,-0.19482 0.60151,-0.19482 z m 25.865608,0 c 0.231423,0 0.431664,0.065 0.600997,0.19482 0.169333,0.129822 0.299329,0.315911 0.38964,0.558622 0.09031,0.242712 0.135393,0.536256 0.135393,0.880567 0,0.321733 -0.04508,0.603749 -0.135393,0.84646 -0.08467,0.237066 -0.212038,0.423672 -0.381372,0.559139 -0.163689,0.129822 -0.36393,0.194303 -0.600997,0.194303 -0.220133,0 -0.409362,-0.05084 -0.567407,-0.152445 -0.158044,-0.107245 -0.287523,-0.242488 -0.389123,-0.406177 -0.1016,-0.163688 -0.178127,-0.335625 -0.228927,-0.516248 -0.04515,-0.180621 -0.0677,-0.344687 -0.0677,-0.491442 v -0.0677 c 0,-0.101599 0.01416,-0.220067 0.04238,-0.355533 0.02822,-0.135467 0.07068,-0.276475 0.127124,-0.42323 0.05644,-0.146756 0.132454,-0.282516 0.228409,-0.406694 0.09596,-0.124178 0.214424,-0.222729 0.355534,-0.296106 0.141112,-0.07902 0.305177,-0.118339 0.491443,-0.118339 z m -62.915018,1.551327 -0.004,0.09095 c -0.006,0.254 -0.0507,0.482546 -0.13539,0.685746 -0.0847,0.197556 -0.19475,0.366869 -0.33022,0.50798 -0.13547,0.141111 -0.28801,0.248567 -0.45733,0.321944 -0.16934,0.07338 -0.34179,0.110071 -0.51677,0.110071 -0.22578,0 -0.40086,-0.05923 -0.52503,-0.177767 -0.11853,-0.118533 -0.17777,-0.273694 -0.17777,-0.465605 0,-0.191911 0.0477,-0.341824 0.14366,-0.449068 0.096,-0.107247 0.22281,-0.191645 0.38086,-0.253731 0.15804,-0.06209 0.32736,-0.107173 0.50798,-0.135393 0.18627,-0.03387 0.36974,-0.06217 0.55035,-0.08475 0.18064,-0.02823 0.34155,-0.06492 0.48266,-0.110071 0.0312,-0.01123 0.0533,-0.02715 0.0806,-0.04031 z m 30.35577,0 -0.004,0.09095 c -0.006,0.254 -0.0507,0.482546 -0.13539,0.685746 -0.0847,0.197556 -0.19475,0.366869 -0.33022,0.50798 -0.13546,0.141111 -0.288,0.248567 -0.45733,0.321944 -0.16934,0.07338 -0.34127,0.110071 -0.51625,0.110071 h -5.2e-4 c -0.22578,0 -0.40085,-0.05923 -0.52503,-0.177767 -0.11853,-0.118533 -0.17777,-0.273694 -0.17777,-0.465605 0,-0.191911 0.0477,-0.341824 0.14366,-0.449068 0.096,-0.107247 0.22333,-0.191645 0.38138,-0.253731 0.15804,-0.06209 0.32735,-0.107173 0.50797,-0.135393 0.18627,-0.03387 0.36974,-0.06217 0.55036,-0.08475 0.18062,-0.02823 0.34154,-0.06492 0.48266,-0.110071 0.0311,-0.0112 0.0528,-0.02719 0.0801,-0.04031 z m -12.14758,1.733744 h 1.09192 c 0.11289,0 0.22873,0.0053 0.34726,0.01654 0.11854,0.0056 0.22862,0.02294 0.33022,0.05116 0.10724,0.02822 0.19478,0.07593 0.26251,0.143661 0.0677,0.06773 0.10181,0.163659 0.10181,0.287837 0,0.129822 -0.054,0.239901 -0.16123,0.330213 -0.1016,0.09031 -0.27668,0.158451 -0.52504,0.203605 -0.24835,0.04515 -0.59223,0.0677 -1.03249,0.0677 -0.22578,0 -0.42916,-0.01153 -0.60978,-0.03411 -0.17498,-0.01693 -0.31337,-0.05939 -0.41497,-0.127124 -0.1016,-0.06209 -0.15244,-0.160639 -0.15244,-0.296106 0,-0.135466 0.0535,-0.248686 0.16071,-0.338997 0.11289,-0.09596 0.31365,-0.19713 0.60152,-0.304374 z m 33.048108,0 h 1.091923 c 0.11289,0 0.228733,0.0053 0.347266,0.01654 0.118533,0.0056 0.228612,0.02294 0.330212,0.05116 0.107245,0.02822 0.194783,0.07593 0.262517,0.143661 0.06773,0.06773 0.101802,0.163659 0.101802,0.287837 0,0.129822 -0.05399,0.239901 -0.16123,0.330213 -0.1016,0.09031 -0.27616,0.158451 -0.524516,0.203605 -0.248355,0.04515 -0.592746,0.0677 -1.033012,0.0677 -0.225778,0 -0.429159,-0.01153 -0.609782,-0.03411 -0.174977,-0.01693 -0.313362,-0.05939 -0.414962,-0.127124 -0.1016,-0.06209 -0.152445,-0.160639 -0.152445,-0.296106 0,-0.135466 0.05399,-0.248686 0.16123,-0.338997 0.11289,-0.09596 0.313131,-0.19713 0.600997,-0.304374 z" />
  </g>
</svg>
