<?xml version="1.0" encoding="UTF-8" standalone="no"?>
<!-- Created with Inkscape (http://www.inkscape.org/) -->

<svg
   width="4.2333331mm"
   height="4.2333331mm"
   viewBox="0 0 4.2333331 4.2333331"
   version="1.1"
   id="svg1"
   inkscape:version="1.3 (0e150ed6c4, 2023-07-21)"
   sodipodi:docname="search.svg"
   xmlns:inkscape="http://www.inkscape.org/namespaces/inkscape"
   xmlns:sodipodi="http://sodipodi.sourceforge.net/DTD/sodipodi-0.dtd"
   xmlns="http://www.w3.org/2000/svg"
   xmlns:svg="http://www.w3.org/2000/svg">
  <sodipodi:namedview
     id="namedview1"
     pagecolor="#ffffff"
     bordercolor="#000000"
     borderopacity="0.25"
     inkscape:showpageshadow="2"
     inkscape:pageopacity="0.0"
     inkscape:pagecheckerboard="0"
     inkscape:deskcolor="#d1d1d1"
     inkscape:document-units="mm"
     inkscape:zoom="18.50477"
     inkscape:cx="7.4575366"
     inkscape:cy="8.565359"
     inkscape:window-width="1366"
     inkscape:window-height="697"
     inkscape:window-x="-8"
     inkscape:window-y="-8"
     inkscape:window-maximized="1"
     inkscape:current-layer="layer1" />
  <defs
     id="defs1" />
  <g
     inkscape:label="Layer 1"
     inkscape:groupmode="layer"
     id="layer1"
     transform="translate(-4.2947812,-5.4904761)">
    <path
       id="path1"
       style="fill:#000000;stroke-width:2.64664"
       d="m 5.0383167,6.2340117 a 1.3229166,1.3229166 0 0 0 0,1.8708867 1.3229166,1.3229166 0 0 0 1.719608,0.1293543 L 7.891419,9.3677469 8.172052,9.0871139 7.0389231,7.9539851 a 1.3229166,1.3229166 0 0 0 -0.1297197,-1.7199733 1.3229166,1.3229166 0 0 0 -1.8708867,-1e-7 z m 0.1870887,0.1870887 a 1.0583333,1.0583333 0 0 1 1.4967093,0 1.0583333,1.0583333 0 0 1 0,1.4967093 1.0583333,1.0583333 0 0 1 -1.4967093,10e-8 1.0583333,1.0583333 0 0 1 0,-1.4967094 z" />
  </g>
</svg>
