<?xml version="1.0" encoding="UTF-8" standalone="no"?>
<!-- Created with Inkscape (http://www.inkscape.org/) -->

<svg
   width="2600"
   height="1080"
   viewBox="0 0 2600 1080"
   version="1.1"
   id="svg1"
   xml:space="preserve"
   xmlns="http://www.w3.org/2000/svg"
   xmlns:svg="http://www.w3.org/2000/svg"><defs
     id="defs1" /><g
     id="layer1"
     transform="translate(-7384.1567,-226.95703)"><rect
       style="fill:#ffffff;stroke-width:38.9965;stroke-linecap:round"
       id="rect6-5"
       width="2600"
       height="1080"
       x="7384.1567"
       y="226.95702" /><g
       id="g83"
       transform="translate(-139.61666,-19.999989)"><path
         id="path82"
         style="fill:#000000;stroke-width:6.96598;stroke-linecap:round"
         d="m 7783.7734,506.95701 a 20,20 0 0 0 -20,20 V 1046.957 a 20,20 0 0 0 20,20 h 140 V 946.95701 h 120 a 40,40 0 0 1 40,40 v 79.99999 h 140 a 20,20 0 0 0 20,-20 v -59.99999 a 200,200 0 0 0 -45.1523,-126.5332 220,220 0 0 0 45.1523,-133.4668 220,220 0 0 0 -220,-220 h -100 z m 140,160 h 100 a 60,60 0 0 1 60,60 60,60 0 0 1 -60,60 h -100 z m 303.4102,360.29889 a 20,20 0 0 1 0.1191,0.021 20,20 0 0 0 -0.1191,-0.021 z m 3.4141,0.9043 a 20,20 0 0 1 0.039,0.014 20,20 0 0 0 -0.039,-0.014 z m -16.6387,1.4277 a 20,20 0 0 0 -0.3008,0.1641 20,20 0 0 1 0.3008,-0.1641 z m 19.7519,0.02 a 20,20 0 0 1 0.1114,0.062 20,20 0 0 0 -0.1114,-0.062 z m 2.8907,2.0098 a 20,20 0 0 1 0.06,0.053 20,20 0 0 0 -0.06,-0.053 z m 2.4589,2.4512 a 20,20 0 0 1 0.053,0.06 20,20 0 0 0 -0.053,-0.06 z m -32.4921,2.7734 a 20,20 0 0 0 -0.1641,0.3008 20,20 0 0 1 0.1641,-0.3008 z m 34.4921,0.066 a 20,20 0 0 1 0.062,0.1113 20,20 0 0 0 -0.062,-0.1113 z m 1.4961,3.1856 a 20,20 0 0 1 0.014,0.039 20,20 0 0 0 -0.014,-0.039 z m 0.8965,3.3339 a 20,20 0 0 1 0.021,0.1192 20,20 0 0 0 -0.021,-0.1192 z m -37.0488,13.3438 a 20,20 0 0 0 0.1641,0.3008 20,20 0 0 1 -0.1641,-0.3008 z m 7.2539,7.3906 a 20,20 0 0 0 0.3008,0.1641 20,20 0 0 1 -0.3008,-0.1641 z" /><path
         id="path94"
         style="fill:#000000;stroke-width:6.44924;stroke-linecap:round"
         d="m 8303.7734,506.95701 a 20,20 0 0 0 -20,20 v 140 40 160 119.99999 60 a 20,20 0 0 0 20,20 h 440 a 20,20 0 0 0 20,-20 V 906.95701 h -320.0001 v -40 h 320.0001 v -160 h -320.0001 v -40 h 320.0001 v -140 a 20,20 0 0 0 -20,-20 h -300.0001 z m 3.4102,0.2989 a 20,20 0 0 1 0.1191,0.0214 20,20 0 0 0 -0.1191,-0.0214 z m 3.4141,0.9043 a 20,20 0 0 1 0.039,0.0136 20,20 0 0 0 -0.039,-0.0136 z m 423.3614,1.4277 a 20,20 0 0 0 -0.3009,0.1641 20,20 0 0 1 0.3009,-0.1641 z m -420.2482,0.0195 a 20,20 0 0 1 0.1113,0.0625 20,20 0 0 0 -0.1113,-0.0625 z m 2.8906,2.0098 a 20,20 0 0 1 0.06,0.0527 20,20 0 0 0 -0.06,-0.0527 z m 2.4589,2.4512 a 20,20 0 0 1 0.053,0.0605 20,20 0 0 0 -0.053,-0.0605 z m 407.508,2.7734 a 20,20 0 0 0 -0.1641,0.3008 20,20 0 0 1 0.1641,-0.3008 z m -405.5079,0.0664 a 20,20 0 0 1 0.062,0.1113 20,20 0 0 0 -0.062,-0.1113 z m 1.4961,3.1856 a 20,20 0 0 1 0.014,0.039 20,20 0 0 0 -0.014,-0.039 z m 0.8965,3.3339 a 20,20 0 0 1 0.021,0.1192 20,20 0 0 0 -0.021,-0.1192 z m -37.0488,13.3438 a 20,20 0 0 0 0.1641,0.3008 20,20 0 0 1 -0.1641,-0.3008 z m 34.7383,0 a 20,20 0 0 1 -0.1641,0.3008 20,20 0 0 0 0.1641,-0.3008 z m 405.2618,0 a 20,20 0 0 0 0.164,0.3008 20,20 0 0 1 -0.164,-0.3008 z m 34.7383,0 a 20,20 0 0 1 -0.1641,0.3008 20,20 0 0 0 0.1641,-0.3008 z m -467.4845,7.3906 a 20,20 0 0 0 0.3008,0.1641 20,20 0 0 1 -0.3008,-0.1641 z m 20.2305,0 a 20,20 0 0 1 -0.3008,0.1641 20,20 0 0 0 0.3008,-0.1641 z m 419.7696,0 a 20,20 0 0 0 0.3008,0.1641 20,20 0 0 1 -0.3008,-0.1641 z m 20.2305,0 a 20,20 0 0 1 -0.3009,0.1641 20,20 0 0 0 0.3009,-0.1641 z m -446.7053,483.09379 a 20,20 0 0 1 0.1191,0.021 20,20 0 0 0 -0.1191,-0.021 z m 440.0001,0 a 20,20 0 0 1 0.1191,0.021 20,20 0 0 0 -0.1191,-0.021 z m -436.5859,0.9043 a 20,20 0 0 1 0.039,0.014 20,20 0 0 0 -0.039,-0.014 z m 440,0 a 20,20 0 0 1 0.039,0.014 20,20 0 0 0 -0.039,-0.014 z m -456.6388,1.4277 a 20,20 0 0 0 -0.3008,0.1641 20,20 0 0 1 0.3008,-0.1641 z m 440.0002,0 a 20,20 0 0 0 -0.3009,0.1641 20,20 0 0 1 0.3009,-0.1641 z m -420.2482,0.019 a 20,20 0 0 1 0.1113,0.062 20,20 0 0 0 -0.1113,-0.062 z m 440,0 a 20,20 0 0 1 0.1113,0.062 20,20 0 0 0 -0.1113,-0.062 z m -437.1094,2.0098 a 20,20 0 0 1 0.06,0.053 20,20 0 0 0 -0.06,-0.053 z m 440.0001,0 a 20,20 0 0 1 0.061,0.053 20,20 0 0 0 -0.061,-0.053 z m -437.5412,2.4512 a 20,20 0 0 1 0.053,0.061 20,20 0 0 0 -0.053,-0.061 z m 440,0 a 20,20 0 0 1 0.053,0.061 20,20 0 0 0 -0.053,-0.061 z m -472.4921,2.7734 a 20,20 0 0 0 -0.1641,0.3008 20,20 0 0 1 0.1641,-0.3008 z m 440.0001,0 a 20,20 0 0 0 -0.1641,0.3008 20,20 0 0 1 0.1641,-0.3008 z m -405.5079,0.066 a 20,20 0 0 1 0.062,0.1113 20,20 0 0 0 -0.062,-0.1113 z m 439.9999,0 a 20,20 0 0 1 0.062,0.1113 20,20 0 0 0 -0.062,-0.1113 z m -438.5039,3.1856 a 20,20 0 0 1 0.014,0.039 20,20 0 0 0 -0.014,-0.039 z m 440,0 a 20,20 0 0 1 0.014,0.039 20,20 0 0 0 -0.014,-0.039 z m -439.1035,3.3339 a 20,20 0 0 1 0.021,0.1192 20,20 0 0 0 -0.021,-0.1192 z m 440.0001,0 a 20,20 0 0 1 0.022,0.1192 20,20 0 0 0 -0.022,-0.1192 z m -442.3105,13.3438 a 20,20 0 0 1 -0.1641,0.3008 20,20 0 0 0 0.1641,-0.3008 z m 405.2617,0 a 20,20 0 0 0 0.1641,0.3008 20,20 0 0 1 -0.1641,-0.3008 z m -412.5157,7.3906 a 20,20 0 0 1 -0.3008,0.1641 20,20 0 0 0 0.3008,-0.1641 z m 419.7696,0 a 20,20 0 0 0 0.3009,0.1641 20,20 0 0 1 -0.3009,-0.1641 z" /><path
         id="path67"
         style="fill:#000000;stroke-width:7.05843;stroke-linecap:round"
         d="m 9603.7734,506.95701 a 280,280 0 0 0 -280,280 280,280 0 0 0 280,279.99999 280,280 0 0 0 280,-279.99999 280,280 0 0 0 -280,-280 z m 0,160 a 120,120 0 0 1 120,120 120,120 0 0 1 -120,120 120,120 0 0 1 -120,-120 120,120 0 0 1 120,-120 z" /><path
         id="path75"
         style="fill:#00a0cc;fill-opacity:1;stroke-width:6.96596;stroke-linecap:round"
         d="M 8803.7734,506.95701 V 1046.957 a 20,20 0 0 0 20,20 h 140 V 786.95701 Z m 320,0 v 280 l 160,279.99999 V 526.95701 a 20,20 0 0 0 -20,-20 z m 132.584,1.47461 a 20,20 0 0 0 -0.3789,0.14062 20,20 0 0 1 0.3789,-0.14062 z m -6.5078,4.23634 a 20,20 0 0 0 -0.3652,0.36523 20,20 0 0 1 0.3652,-0.36523 z m -4.4609,6.49414 a 20,20 0 0 0 -0.1406,0.37889 20,20 0 0 1 0.1406,-0.37889 z m -0.1406,15.21093 a 20,20 0 0 0 0.1406,0.37891 20,20 0 0 1 -0.1406,-0.37891 z m 37.0507,0 a 20,20 0 0 1 -0.1406,0.37891 20,20 0 0 0 0.1406,-0.37891 z m -32.8144,6.50782 a 20,20 0 0 0 0.3652,0.36523 20,20 0 0 1 -0.3652,-0.36523 z m 28.5781,0 a 20,20 0 0 1 -0.3652,0.36523 20,20 0 0 0 0.3652,-0.36523 z m -22.084,4.46093 a 20,20 0 0 0 0.3789,0.14063 20,20 0 0 1 -0.3789,-0.14063 z m 15.5899,0 a 20,20 0 0 1 -0.3789,0.14063 20,20 0 0 0 0.3789,-0.14063 z m -444.7149,481.85732 a 20,20 0 0 1 0.1172,0.02 20,20 0 0 0 -0.1172,-0.02 z m 3.0254,0.7188 a 20,20 0 0 1 0.1543,0.051 20,20 0 0 0 -0.1543,-0.051 z m -13.5215,0.5137 a 20,20 0 0 0 -0.3789,0.1406 20,20 0 0 1 0.3789,-0.1406 z m 16.4219,0.6738 a 20,20 0 0 1 0.1348,0.068 20,20 0 0 0 -0.1348,-0.068 z m 2.7051,1.6445 a 20,20 0 0 1 0.072,0.051 20,20 0 0 0 -0.072,-0.051 z m -25.6348,1.918 a 20,20 0 0 0 -0.3652,0.3652 20,20 0 0 1 0.3652,-0.3652 z m 30.0801,2.5059 a 20,20 0 0 1 0.051,0.072 20,20 0 0 0 -0.051,-0.072 z m 1.6269,2.6425 a 20,20 0 0 1 0.068,0.1348 20,20 0 0 0 -0.068,-0.1348 z m -36.1679,1.3457 a 20,20 0 0 0 -0.1406,0.3789 20,20 0 0 1 0.1406,-0.3789 z m 37.373,1.5352 a 20,20 0 0 1 0.051,0.1543 20,20 0 0 0 -0.051,-0.1543 z m 0.75,3.0625 a 20,20 0 0 1 0.02,0.1172 20,20 0 0 0 -0.02,-0.1172 z m -1.2129,10.6133 a 20,20 0 0 1 -0.1406,0.3789 20,20 0 0 0 0.1406,-0.3789 z m -4.2363,6.5078 a 20,20 0 0 1 -0.3652,0.3652 20,20 0 0 0 0.3652,-0.3652 z m -6.4941,4.4609 a 20,20 0 0 1 -0.3789,0.1407 20,20 0 0 0 0.3789,-0.1407 z" /></g></g></svg>
