<?xml version="1.0" encoding="UTF-8" standalone="no"?>
<!-- Created with Inkscape (http://www.inkscape.org/) -->

<svg
   width="128.00012"
   height="127.99998"
   viewBox="0 0 33.866698 33.866662"
   version="1.1"
   id="svg5"
   inkscape:version="1.2.2 (732a01da63, 2022-12-09)"
   sodipodi:docname="REN_ICON.svg"
   xmlns:inkscape="http://www.inkscape.org/namespaces/inkscape"
   xmlns:sodipodi="http://sodipodi.sourceforge.net/DTD/sodipodi-0.dtd"
   xmlns="http://www.w3.org/2000/svg"
   xmlns:svg="http://www.w3.org/2000/svg">
  <sodipodi:namedview
     id="namedview7"
     pagecolor="#ffffff"
     bordercolor="#000000"
     borderopacity="0.25"
     inkscape:showpageshadow="2"
     inkscape:pageopacity="0.0"
     inkscape:pagecheckerboard="0"
     inkscape:deskcolor="#d1d1d1"
     inkscape:document-units="px"
     showgrid="false"
     inkscape:zoom="0.088388352"
     inkscape:cx="820.24383"
     inkscape:cy="1685.7425"
     inkscape:window-width="1366"
     inkscape:window-height="697"
     inkscape:window-x="-8"
     inkscape:window-y="-8"
     inkscape:window-maximized="1"
     inkscape:current-layer="layer1" />
  <defs
     id="defs2" />
  <g
     inkscape:label="Layer 1"
     inkscape:groupmode="layer"
     id="layer1"
     transform="translate(1220.7859,-20.802847)">
    <rect
       style="fill:#000000;stroke-width:7.72298"
       id="rect566"
       width="33.866665"
       height="33.866665"
       x="-1220.7859"
       y="20.802847"
       inkscape:export-filename="REN_icon.jpg"
       inkscape:export-xdpi="96"
       inkscape:export-ydpi="96" />
    <path
       id="path568"
       style="fill:#ffffff;stroke-width:1.22556"
       d="m -1202.3073,27.152837 a 2.5813192,2.5813192 0 0 0 -2.5814,2.581318 v 2.065056 14.179107 a 2.0650553,2.0650553 0 0 1 -0.033,-0.01834 2.0650553,2.0650553 0 0 1 -0.092,-0.06049 2.0650553,2.0650553 0 0 1 -0.09,-0.06454 2.0650553,2.0650553 0 0 1 -0.088,-0.0706 2.0650553,2.0650553 0 0 1 -0.082,-0.07461 2.0650553,2.0650553 0 0 1 -0.078,-0.07864 2.0650553,2.0650553 0 0 1 -0.074,-0.08269 2.0650553,2.0650553 0 0 1 -0.071,-0.08874 2.0650553,2.0650553 0 0 1 -0.064,-0.09073 2.0650553,2.0650553 0 0 1 -0.061,-0.09276 2.0650553,2.0650553 0 0 1 -0.055,-0.09881 2.0650553,2.0650553 0 0 1 -0.051,-0.09881 2.0650553,2.0650553 0 0 1 -0.045,-0.10283 2.0650553,2.0650553 0 0 1 -0.039,-0.104859 2.0650553,2.0650553 0 0 1 -0.032,-0.106888 2.0650553,2.0650553 0 0 1 -0.028,-0.108919 2.0650553,2.0650553 0 0 1 -0.02,-0.110908 2.0650553,2.0650553 0 0 1 -0.016,-0.110907 2.0650553,2.0650553 0 0 1 -0.01,-0.110909 2.0650553,2.0650553 0 0 1 0,-0.110908 V 40.059303 31.79908 a 8.2602208,8.2602208 0 0 0 -8.2602,8.260223 8.2602208,8.2602208 0 0 0 8.2602,8.260219 2.0650553,2.0650553 0 0 0 2.0651,-2.063039 2.0650553,2.0650553 0 0 0 2.065,2.063039 8.2602208,8.2602208 0 0 0 8.2603,-8.260219 8.2602208,8.2602208 0 0 0 -8.2603,-8.260223 v 8.260223 4.13011 a 2.0650553,2.0650553 0 0 1 0,0.110907 2.0650553,2.0650553 0 0 1 -0.01,0.110908 2.0650553,2.0650553 0 0 1 -0.016,0.110909 2.0650553,2.0650553 0 0 1 -0.02,0.110908 2.0650553,2.0650553 0 0 1 -0.029,0.108917 2.0650553,2.0650553 0 0 1 -0.033,0.106889 2.0650553,2.0650553 0 0 1 -0.039,0.10486 2.0650553,2.0650553 0 0 1 -0.045,0.10283 2.0650553,2.0650553 0 0 1 -0.051,0.09881 2.0650553,2.0650553 0 0 1 -0.055,0.09881 2.0650553,2.0650553 0 0 1 -0.061,0.09276 2.0650553,2.0650553 0 0 1 -0.064,0.09073 2.0650553,2.0650553 0 0 1 -0.07,0.08874 2.0650553,2.0650553 0 0 1 -0.074,0.08269 2.0650553,2.0650553 0 0 1 -0.078,0.07864 2.0650553,2.0650553 0 0 1 -0.082,0.07462 2.0650553,2.0650553 0 0 1 -0.088,0.0706 2.0650553,2.0650553 0 0 1 -0.09,0.06454 2.0650553,2.0650553 0 0 1 -0.092,0.06049 2.0650553,2.0650553 0 0 1 -0.033,0.01834 v -14.17709 -2.065056 a 1.5487915,1.5487915 0 0 0 1.5488,1.548792 1.5487915,1.5487915 0 0 0 1.5488,-1.548792 1.5487915,1.5487915 0 0 0 0,-0.118986 2.5813192,2.5813192 0 0 0 -2.5773,-2.462336 z" />
  </g>
</svg>
