<?xml version="1.0" encoding="UTF-8" standalone="no"?>
<!-- Created with Inkscape (http://www.inkscape.org/) -->

<svg
   width="80.000008"
   height="79.999832"
   viewBox="0 0 80.000008 79.999832"
   version="1.1"
   id="svg5"
   xml:space="preserve"
   sodipodi:docname="profile.svg"
   inkscape:version="1.2.2 (732a01da63, 2022-12-09)"
   xmlns:inkscape="http://www.inkscape.org/namespaces/inkscape"
   xmlns:sodipodi="http://sodipodi.sourceforge.net/DTD/sodipodi-0.dtd"
   xmlns="http://www.w3.org/2000/svg"
   xmlns:svg="http://www.w3.org/2000/svg"><sodipodi:namedview
     id="namedview9"
     pagecolor="#ffffff"
     bordercolor="#000000"
     borderopacity="0.25"
     inkscape:showpageshadow="2"
     inkscape:pageopacity="0.0"
     inkscape:pagecheckerboard="0"
     inkscape:deskcolor="#d1d1d1"
     inkscape:document-units="px"
     showgrid="false"
     inkscape:zoom="4.1359994"
     inkscape:cx="27.804646"
     inkscape:cy="30.222442"
     inkscape:window-width="1366"
     inkscape:window-height="697"
     inkscape:window-x="-8"
     inkscape:window-y="-8"
     inkscape:window-maximized="1"
     inkscape:current-layer="svg5" /><defs
     id="defs2" /><g
     id="layer1"
     transform="matrix(0.07559039,0,0,0.07559039,85.405659,-7.7896735)"><rect
       style="fill:#26729b;fill-opacity:1;stroke-width:217.199"
       id="rect2719"
       width="1058.3334"
       height="1058.3334"
       x="-1129.8458"
       y="103.05111" /><path
       id="rect2598-9"
       style="fill:#ffffff;fill-opacity:1;stroke-width:1927.8"
       d="M -1129.8481,397.95899 V 866.4766 h 104.1117 V 684.27563 h 104.12169 a 39.043133,39.043133 0 0 1 39.0357,39.04266 V 866.4766 h 104.12142 V 723.31829 a 143.15815,143.15815 0 0 0 -32.73958,-91.1005 143.15815,143.15815 0 0 0 32.73958,-91.10046 143.15815,143.15815 0 0 0 -143.15712,-143.15834 h -104.12169 z m 104.1117,104.11568 h 104.12169 a 39.043133,39.043133 0 0 1 39.0357,39.04266 39.043133,39.043133 0 0 1 -39.0357,39.0436 h -104.12169 z" /><path
       id="rect2600-8"
       style="fill:#ffffff;fill-opacity:1;stroke-width:1927.8"
       d="m -730.82292,397.95897 v 468.51761 h 104.11507 156.17253 v -104.115 h -156.17253 v -78.08627 h 156.17253 V 580.16024 h -156.17253 v -78.08627 h 156.17253 v -104.115 h -156.17253 z" /><path
       id="rect540-6"
       style="fill:#ffffff;fill-opacity:1;stroke-width:1927.8"
       d="m -422.90065,397.95897 v 468.51761 h 104.11499 V 599.22427 l 143.15807,267.25231 H -71.512467 V 397.95897 H -175.62759 V 665.21128 L -318.78566,397.95897 Z" /></g></svg>
