<?xml version="1.0" encoding="UTF-8" standalone="no"?>
<!-- Created with Inkscape (http://www.inkscape.org/) -->

<svg
   width="3000"
   height="3000"
   viewBox="0 0 3000 3000"
   version="1.1"
   baseProfile="tiny-ps"
   id="svg1"
   xml:space="preserve"
   xmlns="http://www.w3.org/2000/svg"
   xmlns:svg="http://www.w3.org/2000/svg"><defs
     id="defs1" /><g
     id="g1"><rect
       style="fill:#ffffff;stroke-width:69.815;stroke-linecap:round"
       id="rect7"
       width="3000"
       height="3000"/>
   <title>Reno's Logo</title>
       <path
       id="path82-5"
       style="fill:#05272e;fill-opacity:1;stroke-width:6.96598;stroke-linecap:round"
       d="m 460,1220 a 20,20 0 0 0 -20,20 v 520 a 20,20 0 0 0 20,20 h 140 v -120 h 120 a 40,40 0 0 1 40,40 v 80 h 140 a 20,20 0 0 0 20,-20 v -60 A 200,200 0 0 0 874.847,1573.4668 220,220 0 0 0 920,1440 220,220 0 0 0 700,1220 H 600 Z m 140,160 h 100 a 60,60 0 0 1 60,60 60,60 0 0 1 -60,60 H 600 Z m 303.41,360.2989 a 20,20 0 0 1 0.119,0.021 20,20 0 0 0 -0.119,-0.021 z m 3.414,0.9043 a 20,20 0 0 1 0.04,0.014 20,20 0 0 0 -0.04,-0.014 z m -16.639,1.4277 a 20,20 0 0 0 -0.301,0.1641 20,20 0 0 1 0.301,-0.1641 z m 19.752,0.02 a 20,20 0 0 1 0.112,0.062 20,20 0 0 0 -0.112,-0.062 z m 2.891,2.0098 a 20,20 0 0 1 0.06,0.053 20,20 0 0 0 -0.06,-0.053 z m 2.459,2.4512 a 20,20 0 0 1 0.05,0.06 20,20 0 0 0 -0.05,-0.06 z m -32.492,2.7734 a 20,20 0 0 0 -0.164,0.3008 20,20 0 0 1 0.164,-0.3008 z m 34.492,0.066 a 20,20 0 0 1 0.06,0.1113 20,20 0 0 0 -0.06,-0.1113 z m 1.496,3.1856 a 20,20 0 0 1 0.01,0.039 20,20 0 0 0 -0.01,-0.039 z m 0.896,3.3339 a 20,20 0 0 1 0.02,0.1192 20,20 0 0 0 -0.02,-0.1192 z m -37.048,13.3438 a 20,20 0 0 0 0.164,0.3008 20,20 0 0 1 -0.164,-0.3008 z m 7.253,7.3906 a 20,20 0 0 0 0.301,0.1641 20,20 0 0 1 -0.301,-0.1641 z" /><path
       id="path94-6"
       style="fill:#05272e;fill-opacity:1;stroke-width:6.44924;stroke-linecap:round"
       d="m 980,1220 a 20,20 0 0 0 -20,20 v 140 40 160 120 60 a 20,20 0 0 0 20,20 h 440 a 20,20 0 0 0 20,-20 v -140 h -320 v -40 h 320 v -160 h -320 v -40 h 320 v -140 a 20,20 0 0 0 -20,-20 h -300 z m 3.41,0.2989 a 20,20 0 0 1 0.119,0.021 20,20 0 0 0 -0.119,-0.021 z m 3.414,0.9043 a 20,20 0 0 1 0.04,0.014 20,20 0 0 0 -0.04,-0.014 z m 423.361,1.4277 a 20,20 0 0 0 -0.301,0.1641 20,20 0 0 1 0.301,-0.1641 z m -420.248,0.019 a 20,20 0 0 1 0.111,0.062 20,20 0 0 0 -0.111,-0.062 z m 2.891,2.0098 a 20,20 0 0 1 0.06,0.053 20,20 0 0 0 -0.06,-0.053 z m 2.459,2.4512 a 20,20 0 0 1 0.05,0.06 20,20 0 0 0 -0.05,-0.06 z m 407.508,2.7734 a 20,20 0 0 0 -0.164,0.3008 20,20 0 0 1 0.164,-0.3008 z m -405.508,0.066 a 20,20 0 0 1 0.06,0.1113 20,20 0 0 0 -0.06,-0.1113 z m 1.496,3.1856 a 20,20 0 0 1 0.01,0.039 20,20 0 0 0 -0.01,-0.039 z m 0.896,3.3339 a 20,20 0 0 1 0.02,0.1192 20,20 0 0 0 -0.02,-0.1192 z m -37.048,13.3438 a 20,20 0 0 0 0.164,0.3008 20,20 0 0 1 -0.164,-0.3008 z m 34.738,0 a 20,20 0 0 1 -0.164,0.3008 20,20 0 0 0 0.164,-0.3008 z m 405.262,0 a 20,20 0 0 0 0.164,0.3008 20,20 0 0 1 -0.164,-0.3008 z m 34.738,0 a 20,20 0 0 1 -0.164,0.3008 20,20 0 0 0 0.164,-0.3008 z m -467.485,7.3906 a 20,20 0 0 0 0.301,0.1641 20,20 0 0 1 -0.301,-0.1641 z m 20.231,0 a 20,20 0 0 1 -0.301,0.1641 20,20 0 0 0 0.301,-0.1641 z m 419.77,0 a 20,20 0 0 0 0.3,0.1641 20,20 0 0 1 -0.3,-0.1641 z m 20.23,0 a 20,20 0 0 1 -0.301,0.1641 20,20 0 0 0 0.301,-0.1641 z M 983.41,1740.298 a 20,20 0 0 1 0.119,0.021 20,20 0 0 0 -0.119,-0.021 z m 440,0 a 20,20 0 0 1 0.119,0.021 20,20 0 0 0 -0.119,-0.021 z m -436.586,0.9043 a 20,20 0 0 1 0.04,0.014 20,20 0 0 0 -0.04,-0.014 z m 440,0 a 20,20 0 0 1 0.04,0.014 20,20 0 0 0 -0.04,-0.014 z m -456.639,1.4277 a 20,20 0 0 0 -0.301,0.1641 20,20 0 0 1 0.301,-0.1641 z m 440,0 a 20,20 0 0 0 -0.301,0.1641 20,20 0 0 1 0.301,-0.1641 z m -420.248,0.019 a 20,20 0 0 1 0.111,0.062 20,20 0 0 0 -0.111,-0.062 z m 440,0 a 20,20 0 0 1 0.111,0.062 20,20 0 0 0 -0.111,-0.062 z m -437.109,2.0098 a 20,20 0 0 1 0.06,0.053 20,20 0 0 0 -0.06,-0.053 z m 440,0 a 20,20 0 0 1 0.06,0.053 20,20 0 0 0 -0.06,-0.053 z m -437.541,2.4512 a 20,20 0 0 1 0.05,0.061 20,20 0 0 0 -0.05,-0.061 z m 440,0 a 20,20 0 0 1 0.05,0.061 20,20 0 0 0 -0.05,-0.061 z m -472.492,2.7734 a 20,20 0 0 0 -0.165,0.3008 20,20 0 0 1 0.165,-0.3008 z m 440,0 a 20,20 0 0 0 -0.164,0.3008 20,20 0 0 1 0.164,-0.3008 z m -405.508,0.066 a 20,20 0 0 1 0.06,0.1113 20,20 0 0 0 -0.06,-0.1113 z m 440,0 a 20,20 0 0 1 0.06,0.1113 20,20 0 0 0 -0.06,-0.1113 z m -438.504,3.1856 a 20,20 0 0 1 0.01,0.039 20,20 0 0 0 -0.01,-0.039 z m 440,0 a 20,20 0 0 1 0.01,0.039 20,20 0 0 0 -0.01,-0.039 z m -439.104,3.3339 a 20,20 0 0 1 0.02,0.1192 20,20 0 0 0 -0.02,-0.1192 z m 440,0 a 20,20 0 0 1 0.02,0.1192 20,20 0 0 0 -0.02,-0.1192 z m -442.31,13.3438 a 20,20 0 0 1 -0.164,0.3008 20,20 0 0 0 0.164,-0.3008 z m 405.262,0 a 20,20 0 0 0 0.164,0.3008 20,20 0 0 1 -0.164,-0.3008 z m -412.516,7.3906 a 20,20 0 0 1 -0.301,0.1641 20,20 0 0 0 0.301,-0.1641 z m 419.769,0 a 20,20 0 0 0 0.301,0.1641 20,20 0 0 1 -0.301,-0.1641 z" /><path
       id="path67-2"
       style="fill:#05272e;fill-opacity:1;stroke-width:7.05843;stroke-linecap:round"
       d="m 2280,1220 a 280,280 0 0 0 -280,280 280,280 0 0 0 280,280 280,280 0 0 0 280,-280 280,280 0 0 0 -280,-280 z m 0,160 a 120,120 0 0 1 120,120 120,120 0 0 1 -120,120 120,120 0 0 1 -120,-120 120,120 0 0 1 120,-120 z" /><path
       id="path75-9"
       style="fill:#008cb2;fill-opacity:1;stroke-width:6.96596;stroke-linecap:round"
       d="m 1480,1220 v 540 a 20,20 0 0 0 20,20 h 140 v -280 z m 320,0 v 280 l 160,280 v -540 a 20,20 0 0 0 -20,-20 z m 132.584,1.4746 a 20,20 0 0 0 -0.379,0.1406 20,20 0 0 1 0.379,-0.1406 z m -6.508,4.2364 a 20,20 0 0 0 -0.365,0.3652 20,20 0 0 1 0.365,-0.3652 z m -4.461,6.4941 a 20,20 0 0 0 -0.141,0.3789 20,20 0 0 1 0.141,-0.3789 z m -0.141,15.2109 a 20,20 0 0 0 0.141,0.3789 20,20 0 0 1 -0.141,-0.3789 z m 37.051,0 a 20,20 0 0 1 -0.141,0.3789 20,20 0 0 0 0.141,-0.3789 z m -32.814,6.5079 a 20,20 0 0 0 0.365,0.3652 20,20 0 0 1 -0.365,-0.3652 z m 28.578,0 a 20,20 0 0 1 -0.365,0.3652 20,20 0 0 0 0.365,-0.3652 z m -22.084,4.4609 a 20,20 0 0 0 0.379,0.1406 20,20 0 0 1 -0.379,-0.1406 z m 15.59,0 a 20,20 0 0 1 -0.379,0.1406 20,20 0 0 0 0.379,-0.1406 z m -444.715,481.8573 a 20,20 0 0 1 0.117,0.02 20,20 0 0 0 -0.117,-0.02 z m 3.025,0.7188 a 20,20 0 0 1 0.154,0.051 20,20 0 0 0 -0.154,-0.051 z m -13.521,0.5137 a 20,20 0 0 0 -0.379,0.1406 20,20 0 0 1 0.379,-0.1406 z m 16.422,0.6738 a 20,20 0 0 1 0.134,0.068 20,20 0 0 0 -0.134,-0.068 z m 2.705,1.6445 a 20,20 0 0 1 0.07,0.051 20,20 0 0 0 -0.07,-0.051 z m -25.635,1.918 a 20,20 0 0 0 -0.365,0.3652 20,20 0 0 1 0.365,-0.3652 z m 30.08,2.5059 a 20,20 0 0 1 0.05,0.072 20,20 0 0 0 -0.05,-0.072 z m 1.627,2.6425 a 20,20 0 0 1 0.07,0.1348 20,20 0 0 0 -0.07,-0.1348 z m -36.168,1.3457 a 20,20 0 0 0 -0.141,0.3789 20,20 0 0 1 0.141,-0.3789 z m 37.373,1.5352 a 20,20 0 0 1 0.05,0.1543 20,20 0 0 0 -0.05,-0.1543 z m 0.75,3.0625 a 20,20 0 0 1 0.02,0.1172 20,20 0 0 0 -0.02,-0.1172 z m -1.213,10.6133 a 20,20 0 0 1 -0.141,0.3789 20,20 0 0 0 0.141,-0.3789 z m -4.236,6.5078 a 20,20 0 0 1 -0.365,0.3652 20,20 0 0 0 0.365,-0.3652 z m -6.494,4.4609 a 20,20 0 0 1 -0.379,0.1407 20,20 0 0 0 0.379,-0.1407 z" /></g></svg>
